<svg width="47" height="47" viewBox="0 0 47 47" fill="none" xmlns="http://www.w3.org/2000/svg">
<g clip-path="url(#clip0_110_3180)">
<path d="M29.1402 10.074C29.2321 9.77799 29.3699 9.5224 29.3754 9.27234C29.3974 8.03487 29.3956 6.79556 29.3754 5.55625C29.3667 5.31169 29.4102 5.06809 29.503 4.8417C29.5959 4.61531 29.7359 4.41134 29.9137 4.24339C31.1559 3.01756 32.3931 1.78683 33.6254 0.551199C34.1123 0.0602558 34.6727 -0.145683 35.3305 0.124612C35.9883 0.394906 36.2493 0.939173 36.2493 1.62686C36.2493 2.69517 36.2493 3.76164 36.2493 4.89614H36.7711C37.6898 4.89614 38.6085 4.89614 39.5273 4.89614C40.2163 4.89614 40.7547 5.16827 41.0229 5.81551C41.2912 6.46274 41.1001 7.01069 40.6242 7.48692C39.365 8.74707 38.1081 10.0035 36.8538 11.2563C36.6949 11.4217 36.503 11.5517 36.2906 11.6379C36.0781 11.724 35.8499 11.7644 35.6209 11.7565C34.3659 11.7565 33.1127 11.7418 31.8596 11.7657C31.606 11.7657 31.3561 11.9128 31.0199 12.0194C31.3874 12.4993 31.6832 12.8413 31.9166 13.2275C32.5174 14.2185 33.1183 15.2133 33.6585 16.2375C33.7512 16.4104 33.8078 16.6004 33.8248 16.7959C33.8418 16.9914 33.8188 17.1883 33.7572 17.3746C33.6957 17.5609 33.5969 17.7328 33.4668 17.8796C33.3367 18.0265 33.1781 18.1453 33.0007 18.2288C32.2657 18.5837 31.448 18.2693 31.0217 17.5154C30.4815 16.5593 29.9101 15.6215 29.3441 14.6801C29.2527 14.5447 29.1514 14.4162 29.041 14.2958L26.2554 17.0539C26.4502 17.3628 26.6615 17.679 26.8581 18.0063C27.3413 18.8117 27.1704 19.687 26.452 20.1356C25.7336 20.5843 24.8663 20.3471 24.3647 19.5546L24.01 19.0029C23.9309 19.1795 23.8323 19.3466 23.716 19.5012C22.0574 21.172 20.3927 22.8379 18.7219 24.4989C17.8601 25.3503 16.5041 24.9917 16.2229 23.8517C16.076 23.2633 16.2854 22.7815 16.708 22.3605C18.3617 20.7222 19.9952 19.0747 21.6434 17.4327C21.7869 17.3114 21.9385 17.2003 22.0973 17.0998C21.1733 16.4355 20.1077 15.9949 18.9846 15.8127C14.5821 15.0864 10.6757 17.8629 9.88192 22.2483C9.1249 26.4406 12.1732 30.6366 16.3975 31.214C16.5812 31.2397 16.765 31.2655 16.9487 31.2949C17.3223 31.3545 17.6586 31.5559 17.8876 31.8573C18.1165 32.1587 18.2205 32.5368 18.178 32.913C18.1265 33.2956 17.929 33.6433 17.6268 33.8833C17.3247 34.1233 16.9414 34.2368 16.5574 34.2001C11.9435 33.7974 8.00773 30.3002 7.09085 25.7787C5.85608 19.6998 9.68348 13.9905 15.7911 12.8965C18.6153 12.3908 21.2575 12.9811 23.6554 14.5845C23.8079 14.6856 23.9568 14.7886 24.0652 14.8621L26.8397 12.0856C25.4806 10.9557 23.9166 10.0985 22.2332 9.56102C13.8398 6.88198 5.17623 11.8024 3.28917 20.4096C1.52339 28.4541 6.66823 36.0572 14.3488 37.8059C15.3979 38.0449 16.4931 38.1001 17.5716 38.1865C18.461 38.2582 19.1169 38.8521 19.1096 39.6796C19.1022 40.507 18.4444 41.1505 17.5514 41.1285C16.9242 41.1228 16.2978 41.0811 15.6754 41.0034C9.79556 40.2183 5.2975 37.2947 2.31165 32.1646C-1.3908 25.8063 -0.573136 17.6276 4.25016 12.0543C7.09085 8.77036 10.6573 6.7312 14.9459 6.09316C20.0283 5.33192 24.6219 6.57491 28.6643 9.76696L28.916 9.96738C28.9307 9.98393 28.962 9.99312 29.1402 10.074ZM36.0435 7.83077C35.6062 7.83077 35.2423 7.83077 34.8785 7.83077C33.8955 7.81606 33.3222 7.24237 33.3075 6.25864C33.3075 5.8909 33.3075 5.52315 33.3075 5.14253L33.1421 5.05243L32.7287 5.60405C32.5946 5.78793 32.352 5.95341 32.3429 6.13545C32.3024 7.0162 32.3245 7.8988 32.3245 8.82368C32.9915 8.82368 33.6217 8.75933 34.2336 8.84023C35.0751 8.94136 35.5657 8.50926 36.0435 7.83077Z" fill="white"/>
<path d="M34.276 21.5518C36.7911 21.5507 39.2501 22.2961 41.3418 23.6937C43.4336 25.0912 45.0642 27.0782 46.0274 29.4032C46.9905 31.7282 47.243 34.2869 46.7529 36.7555C46.2627 39.2242 45.052 41.4919 43.2738 43.2719C41.4956 45.0518 39.2298 46.2641 36.763 46.7553C34.2963 47.2465 31.7393 46.9946 29.4157 46.0314C27.092 45.0682 25.106 43.4371 23.7088 41.3442C22.3116 39.2514 21.566 36.7909 21.5664 34.2741C21.5688 30.9013 22.9085 27.6673 25.2914 25.2821C27.6743 22.8968 30.9056 21.5552 34.276 21.5518ZM34.2613 24.4938C32.327 24.4985 30.4375 25.0774 28.832 26.157C27.2265 27.2367 25.9771 28.7687 25.2419 30.5591C24.5067 32.3495 24.3188 34.318 24.7019 36.2153C25.085 38.1127 26.0219 39.8537 27.394 41.2181C28.7661 42.5824 30.5119 43.5088 32.4103 43.88C34.3088 44.2513 36.2746 44.0506 38.059 43.3034C39.8435 42.5563 41.3663 41.2963 42.4349 39.6828C43.5035 38.0693 44.0699 36.1748 44.0622 34.2391C44.0596 32.9547 43.8038 31.6835 43.3096 30.4982C42.8154 29.3128 42.0924 28.2367 41.182 27.3313C40.2717 26.4259 39.1918 25.7091 38.0042 25.2219C36.8167 24.7347 35.5448 24.4866 34.2613 24.492V24.4938Z" fill="white"/>
<path d="M32.2105 35.6568C33.1017 34.6988 33.9745 33.7611 34.8454 32.8215C35.7164 31.8819 36.6094 30.9147 37.495 29.9641C38.1565 29.2543 39.0495 29.1808 39.6834 29.7802C40.3173 30.3796 40.3026 31.2512 39.6669 31.9462C37.5991 34.1846 35.5302 36.4119 33.46 38.6282C32.8224 39.3141 32.0158 39.3637 31.2992 38.7533C30.1967 37.8155 29.0942 36.8698 27.9918 35.9161C27.3211 35.3314 27.2439 34.423 27.7878 33.7942C28.3317 33.1653 29.2339 33.1322 29.9192 33.7059C30.6854 34.344 31.4296 34.9912 32.2105 35.6568Z" fill="white"/>
</g>
<defs>
<clipPath id="clip0_110_3180">
<rect width="47" height="47" fill="white"/>
</clipPath>
</defs>
</svg>
