<svg width="48" height="48" viewBox="0 0 48 48" fill="none" xmlns="http://www.w3.org/2000/svg">
<g clip-path="url(#clip0_110_3194)">
<path d="M34.1108 33.0872L39.9414 39.2847C40.9804 38.6292 42.2356 38.4029 43.4399 38.6539C44.6442 38.9049 45.7024 39.6135 46.3893 40.6288C47.0018 41.552 47.2644 42.6617 47.1303 43.7597C46.9962 44.8576 46.474 45.8725 45.657 46.623C43.9881 48.184 41.4818 48.2692 39.6045 46.8263C37.5733 45.2634 37.3026 43.0691 38.8255 40.2763L33.067 34.1543C32.4827 34.5823 31.9355 35.0026 31.3688 35.3977C30.88 35.7366 30.6074 35.6669 30.1848 35.2466C29.8248 34.8576 29.4202 34.5118 28.9793 34.2163C28.2452 33.7747 27.7252 33.9877 27.5051 34.7973C27.3831 35.2621 27.341 35.744 27.3805 36.2227C27.4506 37.0962 27.2968 37.3615 26.4204 37.4971C25.8615 37.5843 25.2987 37.6385 24.6892 37.7121C24.6892 38.6804 24.6892 39.6217 24.7048 40.5668C24.7048 40.6579 24.8995 40.7876 25.0222 40.8283C26.6307 41.3376 27.5811 42.6856 27.4876 44.3454C27.4328 45.1316 27.1157 45.8771 26.5866 46.4637C26.0574 47.0503 25.3465 47.4444 24.5665 47.5836C23.7666 47.7449 22.9349 47.6052 22.2326 47.1916C21.5303 46.778 21.0074 46.1199 20.7651 45.3447C20.4842 44.5348 20.5164 43.6499 20.8555 42.8622C21.1946 42.0746 21.8163 41.4407 22.5996 41.0839C23.0748 40.8709 23.1994 40.6249 23.1838 40.1543C23.1488 39.3661 23.1741 38.5778 23.1741 37.7605C22.4847 37.652 21.8109 37.5668 21.1546 37.439C20.5412 37.3305 20.4068 37.0923 20.3932 36.4706C20.4042 35.8805 20.3387 35.2914 20.1984 34.7179C20.0037 34.0613 19.4915 33.8619 18.8975 34.2085C18.4354 34.4973 18.0225 34.8575 17.6746 35.2757C17.1916 35.8276 16.8859 35.9206 16.2666 35.5081C15.7583 35.1691 15.2676 34.8031 14.734 34.4235L8.84691 40.4971C10.3211 43.0904 9.99978 45.5132 7.9842 47.0626C7.08947 47.7318 5.98293 48.0594 4.86587 47.9857C3.74881 47.9121 2.69543 47.4421 1.89736 46.6613C1.09928 45.8805 0.609528 44.8408 0.517175 43.7312C0.424823 42.6216 0.736011 41.5159 1.39413 40.6152C2.11562 39.6669 3.1701 39.0239 4.34721 38.8146C5.52431 38.6054 6.73748 38.8451 7.74467 39.4861L13.6609 33.4048C13.2228 32.8238 12.7982 32.2679 12.4029 31.7024C12.0602 31.2124 12.1049 30.9277 12.5567 30.5287C13.0728 30.0736 13.5305 29.5855 13.7252 28.8999C13.8596 28.4022 13.7603 28.0768 13.2695 27.9432C12.7137 27.787 12.1368 27.7184 11.5597 27.7398C10.7164 27.7824 10.5314 27.7185 10.3659 26.8741C10.2276 26.1672 10.1381 25.4506 10.0193 24.6856C9.11565 24.6856 8.19647 24.674 7.27729 24.7011C7.17213 24.7011 7.02802 24.8948 6.97739 25.0381C6.49832 26.295 5.61419 27.1123 4.29579 27.3854C2.6658 27.7243 1.0027 26.7134 0.437952 25.0904C0.169251 24.3032 0.199103 23.4454 0.521892 22.6785C0.844682 21.9116 1.43815 21.2885 2.19063 20.9264C2.62221 20.7008 3.09782 20.5709 3.58472 20.5456C4.07162 20.5203 4.55826 20.6002 5.01113 20.7798C5.464 20.9595 5.87236 21.2346 6.20809 21.5862C6.54383 21.9378 6.79897 22.3576 6.95597 22.8167C6.97646 22.9323 7.04186 23.0353 7.13804 23.1034C7.23423 23.1716 7.35349 23.1993 7.47008 23.1808C8.3289 23.1672 9.18576 23.1808 10.0679 23.1808C10.1536 22.6462 10.2296 22.1407 10.3192 21.6314C10.4418 20.9361 10.6755 20.7986 11.3688 20.7831C11.9472 20.7869 12.5233 20.7107 13.0806 20.5565C13.7194 20.3628 13.9297 19.8244 13.6045 19.2434C13.325 18.777 12.9756 18.3558 12.5684 17.9942C12.0504 17.51 11.955 17.2195 12.3464 16.6172C12.697 16.0788 13.0825 15.5636 13.474 15.0058L10.5158 11.9574C9.60251 11.0026 8.66969 10.071 7.77388 9.08523C7.48761 8.77535 7.29092 8.71531 6.8917 8.92641C4.78849 10.0381 2.21789 9.3738 0.825488 7.40027C0.184317 6.47619 -0.0972866 5.35186 0.0331212 4.23665C0.163529 3.12144 0.697058 2.09138 1.53435 1.33829C2.89754 0.0987846 5.08644 -0.149117 6.85665 0.73597C7.67873 1.15034 8.35773 1.79933 8.80667 2.59982C9.25561 3.4003 9.45407 4.31585 9.37661 5.22919C9.30095 6.10791 8.97913 6.94795 8.44769 7.65398L14.5275 13.9639C15.1001 13.5571 15.6298 13.1524 16.1731 12.7825C16.6833 12.4338 16.9521 12.5094 17.4019 12.9374C17.8058 13.3502 18.2598 13.7112 18.7534 14.0123C19.3708 14.3609 19.8888 14.1362 20.0582 13.4448C20.1752 12.8971 20.2125 12.3355 20.1692 11.7773C20.1381 11.1207 20.3114 10.7954 20.9599 10.6772C21.6726 10.5455 22.3912 10.4448 23.1682 10.3228C23.1682 9.29633 23.1799 8.25437 23.1488 7.21434C23.1488 7.10395 22.8995 6.9645 22.7418 6.90059C22.1024 6.65503 21.5505 6.22681 21.1554 5.66987C20.7604 5.11293 20.5399 4.45217 20.5217 3.77083C20.5144 3.08124 20.7093 2.40448 21.0824 1.82323C21.4556 1.24197 21.9909 0.781389 22.623 0.497752C24.3971 -0.265321 26.5529 0.590715 27.2461 2.33377C27.4146 2.77042 27.4941 3.23601 27.48 3.70348C27.4659 4.17095 27.3586 4.63098 27.1641 5.05681C26.9697 5.48265 26.6921 5.8658 26.3474 6.18399C26.0028 6.50217 25.598 6.74906 25.1565 6.91028C24.7865 7.04004 24.6639 7.19498 24.6775 7.58426C24.7106 8.4984 24.6775 9.41641 24.6775 10.346C25.2617 10.4409 25.8226 10.5145 26.3737 10.6249C27.0378 10.7547 27.1624 11.0123 27.1527 11.6688C27.1414 12.2277 27.2136 12.7851 27.3669 13.3228C27.5616 13.9794 28.1147 14.2001 28.7184 13.8651C29.1926 13.585 29.6214 13.235 29.99 12.827C30.4496 12.3389 30.7787 12.246 31.3338 12.6081C31.842 12.9471 32.3328 13.3112 32.8664 13.6908L39.0339 7.42738C37.6862 4.57264 38.0777 2.30666 40.1419 0.863794C42.0115 -0.445437 44.5957 -0.245954 46.1536 1.32474C46.9466 2.1117 47.4335 3.15261 47.528 4.26273C47.6224 5.37284 47.3184 6.48034 46.6697 7.38865C45.2091 9.41254 42.8411 9.8115 40.0894 8.47516L33.9433 14.7192C34.3932 15.3234 34.8313 15.8812 35.2403 16.4622C35.5811 16.9484 35.4935 17.2059 35.0825 17.6437C34.6448 18.0878 34.2623 18.5826 33.9433 19.1175C33.6512 19.6462 33.8498 20.0859 34.4438 20.2447C34.9901 20.3785 35.5523 20.4372 36.1147 20.419C36.9345 20.4074 37.1234 20.4984 37.2831 21.2925C37.3866 21.7969 37.464 22.3063 37.5149 22.8186C37.5402 23.0859 37.6317 23.1808 37.9044 23.1788C38.8781 23.1672 39.8518 23.1633 40.8255 23.1788C41.1215 23.1788 41.2013 23.0336 41.2929 22.805C42.1108 20.7986 44.2491 19.9871 46.1828 20.938C47.8479 21.7553 48.4827 23.7502 47.6356 25.4913C47.2274 26.2983 46.5163 26.9131 45.6559 27.203C44.7956 27.4929 43.8552 27.4346 43.0378 27.0407C42.0329 26.572 41.324 25.8399 41.0903 24.674H37.6103C37.5129 25.3073 37.4311 25.9232 37.326 26.5352C37.2111 27.2111 36.9462 27.3699 36.2646 27.3777C35.7027 27.3677 35.1421 27.4368 34.5996 27.583C33.9083 27.7941 33.6765 28.4332 34.0485 29.0568C34.317 29.4736 34.645 29.8494 35.0222 30.1724C35.5246 30.6256 35.6064 30.9471 35.2364 31.5068C34.8878 32.0374 34.5081 32.5371 34.1108 33.0872ZM33.7739 16.6094C33.0102 15.5403 32.0542 14.621 30.954 13.898C29.9589 14.8664 28.9034 15.6759 27.4779 15.1588C25.9414 14.601 25.694 13.2221 25.6317 11.7753C24.3269 11.5701 23.0533 11.5294 21.7836 11.8528C21.6979 13.224 21.5889 14.5933 20.1536 15.1995C18.7184 15.8057 17.5791 14.9748 16.5236 14.0375C15.4645 14.7849 14.5506 15.7174 13.8265 16.7896C14.2276 17.3706 14.6619 17.8722 14.9326 18.4435C15.5752 19.7992 15.0397 21.1859 13.6551 21.765C13.1312 21.9839 12.5256 22.0071 11.9667 22.1524C11.8245 22.1892 11.6084 22.346 11.6064 22.4603C11.6064 23.5333 11.6337 24.6081 11.6492 25.6811C11.6492 25.9852 11.8343 26.0007 12.0913 26.0413C12.7242 26.142 13.3863 26.2137 13.9628 26.4655C15.0631 26.9438 15.5207 28.0032 15.1741 29.1498C15.0124 29.6766 14.6931 30.1588 14.4165 30.643C14.247 30.8825 14.0574 31.1073 13.8498 31.3151L16.6716 34.042C17.7427 33.0116 18.8138 32.1575 20.2471 32.7095C21.7408 33.2808 21.8732 34.6927 21.9998 36.0717C23.0675 36.2517 24.156 36.2752 25.2306 36.1414C25.7291 36.0872 25.955 35.9129 25.8966 35.3996C25.891 35.204 25.912 35.0086 25.9589 34.8186C26.2393 33.1181 27.4584 32.1498 28.9774 32.5507C29.6084 32.7192 30.1653 33.1666 30.7495 33.4977C30.8814 33.5905 31.0046 33.6949 31.1176 33.8096C32.1937 33.0465 33.1232 32.0973 33.8615 31.0071C32.9677 29.9632 32.0407 28.9367 32.6931 27.4571C33.326 26.0103 34.6814 25.8128 36.0894 25.714C36.1361 25.2666 36.214 24.8367 36.2198 24.4048C36.2198 23.8238 36.2043 23.2427 36.1556 22.6617C36.0874 21.887 36.0718 21.887 35.2831 21.8115C35.1702 21.8018 35.0572 21.7941 34.9443 21.7805C32.7048 21.4997 31.7856 19.6501 32.9501 17.7231C33.178 17.3415 33.4798 17.0026 33.7739 16.6094ZM39.3532 43.2105C39.3532 44.9961 40.6677 46.3209 42.4691 46.3344C42.8831 46.339 43.294 46.262 43.6779 46.1079C44.0619 45.9537 44.4113 45.7255 44.7061 45.4363C45.0008 45.1471 45.2351 44.8027 45.3953 44.423C45.5555 44.0433 45.6385 43.6358 45.6395 43.224C45.6432 42.3925 45.316 41.5933 44.7293 41.0007C44.1426 40.4082 43.3441 40.0705 42.5081 40.0613C40.7223 40.0439 39.363 41.3977 39.3532 43.2105ZM7.78946 4.87283C7.78946 3.06392 6.42627 1.66173 4.67359 1.66367C3.84024 1.67426 3.0442 2.009 2.45598 2.59616C1.86775 3.18333 1.53413 3.97624 1.52656 4.80505C1.51533 5.21668 1.58743 5.62636 1.73859 6.00973C1.88975 6.3931 2.11688 6.74233 2.40647 7.03665C2.69606 7.33097 3.0422 7.56438 3.4243 7.723C3.80641 7.88162 4.21669 7.96221 4.63075 7.95998C5.0443 7.9723 5.45609 7.90127 5.84133 7.75118C6.22656 7.60108 6.57728 7.37503 6.87238 7.08662C7.16748 6.79821 7.40085 6.4534 7.55845 6.07295C7.71606 5.6925 7.79464 5.28427 7.78946 4.87283ZM5.17018 46.4467C5.59016 46.4559 6.00773 46.3814 6.39832 46.2276C6.78891 46.0739 7.14461 45.8439 7.44448 45.5513C7.74435 45.2588 7.98233 44.9095 8.1444 44.5241C8.30647 44.1386 8.38936 43.7249 8.3882 43.3071C8.38703 42.8893 8.30182 42.476 8.13759 42.0915C7.97336 41.7069 7.73343 41.359 7.43193 41.0681C7.13042 40.7772 6.77344 40.5492 6.382 40.3976C5.99056 40.246 5.57257 40.1738 5.15266 40.1853C3.65509 40.226 2.06405 41.2737 2.03678 43.3015C2.03056 43.7138 2.10714 44.1232 2.26203 44.5057C2.41693 44.8882 2.64703 45.2361 2.93885 45.529C3.23067 45.8219 3.57834 46.054 3.96149 46.2116C4.34464 46.3692 4.75556 46.4491 5.17018 46.4467ZM45.9686 4.66173C45.9691 4.24649 45.8874 3.83522 45.728 3.45142C45.5686 3.06762 45.3348 2.71881 45.0398 2.42492C44.7449 2.13103 44.3946 1.89783 44.0089 1.73863C43.6233 1.57943 43.2099 1.49736 42.7924 1.49711C41.1137 1.51647 39.6609 2.95353 39.6765 4.57651C39.6979 6.30214 41.0942 7.7392 42.7534 7.74307C44.5042 7.74694 45.9803 6.32732 45.9686 4.66173ZM25.9725 44.3512C25.9811 44.0814 25.9342 43.8127 25.8346 43.5616C25.735 43.3104 25.5848 43.0822 25.3934 42.8909C25.2019 42.6995 24.9731 42.5491 24.7211 42.4489C24.469 42.3486 24.1991 42.3007 23.9277 42.3079C22.9365 42.3079 22.027 43.2201 22.0407 44.1866C22.0563 45.3138 22.9151 46.2434 23.9297 46.2356C25.065 46.2221 25.9803 45.3757 25.9725 44.3512ZM5.6473 23.9884C5.63367 22.8263 4.81965 22.0517 3.62977 22.0633C3.13427 22.0761 2.66278 22.2783 2.3132 22.6277C1.96362 22.9772 1.76281 23.4471 1.75246 23.94C1.75246 25.1156 2.60932 25.9639 3.7622 25.9522C4.01731 25.952 4.26973 25.9003 4.50423 25.8004C4.73873 25.7005 4.95044 25.5543 5.1266 25.3708C5.30276 25.1873 5.43972 24.9702 5.52921 24.7326C5.6187 24.495 5.65887 24.2418 5.6473 23.9884ZM22.0524 3.61977C22.0414 4.13924 22.2372 4.64199 22.5972 5.01853C22.9572 5.39507 23.4522 5.61488 23.9745 5.6301C25.0163 5.63978 25.9453 4.77019 25.955 3.77858C25.9686 2.60104 25.176 1.7605 24.0329 1.73726C23.778 1.72953 23.5242 1.77229 23.2861 1.86307C23.0481 1.95385 22.8305 2.09083 22.6462 2.26603C22.4619 2.44122 22.3145 2.65114 22.2125 2.88355C22.1106 3.11596 22.0561 3.36623 22.0524 3.61977ZM44.4477 25.8631C45.583 25.8631 46.4516 25.073 46.4691 24.0116C46.4866 22.8496 45.6492 21.9819 44.5217 21.9819C43.4876 21.9819 42.5879 22.8283 42.5743 23.818C42.5548 24.9645 43.3727 25.8573 44.4496 25.8631H44.4477Z" fill="white"/>
<path d="M23.8696 31.654C22.3474 31.6532 20.8596 31.2034 19.5945 30.3616C18.3294 29.5197 17.3438 28.3235 16.7625 26.9244C16.1811 25.5254 16.0301 23.9862 16.3285 22.5017C16.627 21.0173 17.3614 19.6542 18.439 18.585C19.5166 17.5158 20.8888 16.7884 22.3822 16.495C23.8755 16.2016 25.4228 16.3553 26.8283 16.9367C28.2337 17.518 29.4342 18.5009 30.2779 19.761C31.1215 21.021 31.5704 22.5017 31.5677 24.0155C31.5636 26.0431 30.7506 27.9862 29.3073 29.4184C27.8641 30.8505 25.9084 31.6545 23.8696 31.654ZM23.6456 30.1046C27.2659 30.2092 29.9338 27.0852 29.9241 24.1007C29.9124 20.6146 27.2191 17.8315 23.8189 17.8335C22.1757 17.849 20.6038 18.5032 19.4392 19.6563C18.2747 20.8094 17.61 22.3698 17.5872 24.0039C17.5365 27.4745 20.6953 30.2131 23.6456 30.1007V30.1046Z" fill="white"/>
<path d="M23.6339 29.0375C23.3555 28.9155 23.003 28.8593 22.8102 28.6501C22.4071 28.226 22.7225 27.5501 23.3185 27.4668C23.7204 27.4313 24.1197 27.3712 24.5142 27.2867C25.2622 27.0859 25.9272 26.655 26.4141 26.0556C26.9009 25.4563 27.1848 24.7192 27.225 23.9497C27.225 23.8528 27.225 23.756 27.2425 23.6611C27.299 23.1363 27.5852 22.8554 28.0409 22.8864C28.4966 22.9174 28.7712 23.2157 28.7576 23.7386C28.7488 24.7431 28.4515 25.7241 27.9007 26.5662C26.8998 28.0652 25.4665 28.8167 23.6339 29.0375Z" fill="white"/>
</g>
<defs>
<clipPath id="clip0_110_3194">
<rect width="48" height="48" fill="white"/>
</clipPath>
</defs>
</svg>
