<svg width="43" height="47" viewBox="0 0 43 47" fill="none" xmlns="http://www.w3.org/2000/svg">
<g clip-path="url(#clip0_110_3209)">
<path d="M31.1073 11.397H41.3334C42.4931 11.397 42.998 11.8952 42.998 13.0514V19.568C42.998 20.8878 42.5486 21.34 41.2354 21.34H31.1424V22.7775C31.3163 22.7775 31.4938 22.8033 31.6714 22.8033H41.228C42.5449 22.8033 42.9943 23.2555 42.9943 24.5753C42.9943 25.1728 42.9943 25.7683 42.9943 26.3658C42.9943 26.897 42.7206 27.2169 42.2989 27.2205C41.8772 27.2242 41.6145 26.9172 41.609 26.375C41.609 25.6728 41.609 24.9687 41.609 24.2242H24.8799V31.329H41.6145C41.6145 30.7261 41.6145 30.1213 41.6145 29.5165C41.61 29.4313 41.623 29.3461 41.6528 29.266C41.6826 29.186 41.7285 29.1128 41.7877 29.051C41.8469 28.9893 41.9182 28.9401 41.9972 28.9067C42.0762 28.8733 42.1612 28.8562 42.2471 28.8566C42.6336 28.8272 42.8778 29.0496 42.9721 29.4264C42.9857 29.4868 42.9926 29.5484 42.9924 29.6103C42.9924 30.2077 43.0128 30.8051 42.9924 31.4007C42.9573 32.2444 42.3747 32.7481 41.4518 32.7481C38.5122 32.7481 35.5733 32.7481 32.635 32.7481H31.1406V35.6305H41.2927C42.5134 35.6305 42.9998 36.1158 42.9998 37.3272V43.7978C42.9998 45.1176 42.5523 45.568 41.2372 45.568C32.1264 45.568 23.0162 45.5723 13.9066 45.5808C13.5776 45.5866 13.257 45.6848 12.9818 45.8639C11.6248 46.7959 9.95924 47.1738 8.32979 46.9192C6.70033 46.6646 5.23172 45.7971 4.2279 44.4963C4.15197 44.3765 4.0443 44.2799 3.91673 44.217C3.78915 44.1541 3.6466 44.1273 3.50473 44.1397C2.8278 44.1672 2.15086 44.1525 1.47023 44.1397C0.576904 44.1415 0.0368375 43.6139 -0.00015331 42.7261C-0.00015331 42.6194 -0.00015331 42.5128 -0.00015331 42.4044C-0.00015331 32.386 -0.00015331 22.3676 -0.00015331 12.3492C-0.0107596 12.1649 -0.00145879 11.9801 0.0275898 11.7978C0.0493363 11.6354 0.133106 11.4875 0.26154 11.3849C0.389974 11.2822 0.553226 11.2326 0.717469 11.2463C0.803113 11.2433 0.88848 11.2575 0.968477 11.2881C1.04847 11.3186 1.12146 11.3649 1.18309 11.4241C1.24471 11.4832 1.2937 11.5542 1.32715 11.6326C1.3606 11.711 1.37781 11.7953 1.37776 11.8805C1.3907 12.0478 1.37776 12.2169 1.37776 12.3842V42.7408H3.05714C3.0109 41.7628 2.89438 40.7922 2.94247 39.8308C2.97206 39.2224 3.21435 38.6139 3.4215 38.0275C3.60645 37.5202 3.99856 37.3529 4.38881 37.5294C4.77906 37.7058 4.89188 38.068 4.68289 38.5808C3.77661 40.8217 4.38511 43.1764 6.2402 44.5919C7.0481 45.2013 8.02194 45.5548 9.03487 45.6063C10.0478 45.6578 11.0528 45.4049 11.9191 44.8806C12.7854 44.3563 13.4727 43.5849 13.8915 42.6668C14.3103 41.7487 14.4412 40.7265 14.2672 39.7334C14.0885 38.7568 13.6237 37.8544 12.9311 37.1393C12.2385 36.4241 11.349 35.928 10.3739 35.7132C9.11386 35.4242 7.78994 35.6408 6.68964 36.3161C6.53787 36.4185 6.3696 36.4944 6.19211 36.5404C6.03969 36.5792 5.87811 36.5585 5.74054 36.4826C5.60296 36.4067 5.49983 36.2814 5.4523 36.1323C5.3849 35.9831 5.37598 35.8143 5.4273 35.6589C5.47862 35.5035 5.58647 35.3727 5.72973 35.2922C6.59959 34.705 7.60496 34.3464 8.652 34.25C10.2302 34.0894 11.8121 34.5172 13.0909 35.4503C13.2356 35.5589 13.4093 35.6229 13.5903 35.6342C18.8861 35.6415 24.1801 35.6415 29.4723 35.6342C29.5412 35.6293 29.6097 35.6207 29.6776 35.6084V32.7518H29.193C27.8244 32.7518 26.4551 32.7518 25.0852 32.7518C23.9755 32.7518 23.4576 32.2518 23.4539 31.1654C23.4539 28.9019 23.4539 26.6384 23.4539 24.375C23.4539 23.3327 23.9644 22.8198 25.0094 22.8106C26.3947 22.7996 27.7837 22.8106 29.1653 22.8106H29.6813V21.34H29.169C27.7855 21.34 26.3947 21.34 25.0149 21.34C23.9699 21.34 23.4557 20.8253 23.4539 19.7849C23.4465 17.5055 23.4465 15.2267 23.4539 12.9485C23.4539 11.9154 23.9847 11.408 25.0334 11.4062C26.5685 11.4062 28.1055 11.4062 29.6739 11.4062V4.2279H29.1301C24.3213 4.2279 19.5273 4.2279 14.7259 4.23709C14.4353 4.2502 14.1455 4.19913 13.8772 4.08757C13.6088 3.976 13.3687 3.80671 13.1741 3.59187C12.5305 2.91172 11.8573 2.26099 11.1822 1.61209C11.0595 1.49077 10.8992 1.41431 10.7272 1.39518C7.66435 1.38415 4.60212 1.38415 1.54051 1.39518C1.48766 1.40422 1.43568 1.41775 1.38515 1.43562V1.90437C1.38515 4.16663 1.38515 6.43011 1.38515 8.69481C1.39137 8.84754 1.38643 9.00052 1.37036 9.15253C1.31487 9.5018 1.06888 9.74444 0.745212 9.704C0.48007 9.63241 0.245254 9.47768 0.0756779 9.26283C-0.0241974 9.15253 0.00354577 8.91356 0.00354577 8.73341C0.00107972 6.3768 -0.00015331 4.02141 -0.00015331 1.66724C-0.00015331 0.485253 0.489975 -4.06238e-05 1.69033 -4.06238e-05C6.60518 -4.06238e-05 11.5145 -4.06238e-05 16.4182 -4.06238e-05C16.6944 -0.0130204 16.97 0.0344154 17.2257 0.138917C17.4813 0.243418 17.7108 0.402435 17.8979 0.604739C18.523 1.25915 19.1925 1.87496 19.814 2.52753C19.9131 2.64029 20.0367 2.72917 20.1754 2.78745C20.3142 2.84573 20.4644 2.87189 20.6148 2.86393C23.5741 2.84922 26.5334 2.85474 29.4797 2.86393C30.619 2.86393 31.1091 3.34922 31.1091 4.4779C31.1091 6.60413 31.1091 8.73035 31.1091 10.8566L31.1073 11.397ZM41.5794 37.0422H14.6501C15.3582 38.0944 15.7367 39.3315 15.7376 40.5974C15.7325 41.8613 15.3593 43.0967 14.663 44.1544H41.5794V37.0422ZM41.5628 19.9264V12.8216H24.8817V19.9338L41.5628 19.9264ZM18.1346 2.85474C16.9287 1.38415 16.9287 1.38415 15.1753 1.38415H12.917C13.4423 1.89886 13.8622 2.31797 14.295 2.72422C14.3832 2.80012 14.4946 2.84416 14.6112 2.84922C15.7672 2.85842 16.9139 2.85474 18.1346 2.85474Z" fill="white"/>
<path d="M19.4441 25.7904C20.5538 26.3603 21.3935 27.2022 21.5877 28.4375C21.7241 29.4955 21.7606 30.5639 21.6969 31.6287C21.6784 32.2463 21.1586 32.6544 20.5242 32.7316C20.3712 32.7466 20.2174 32.7516 20.0637 32.7463H4.83273C3.58244 32.7463 3.11635 32.2812 3.12005 31.0239C3.09285 30.3056 3.10644 29.5863 3.16074 28.8695C3.3198 27.5294 3.9579 26.704 5.42088 25.7629C4.70141 23.8879 5.13605 21.932 5.02693 20.0129C4.98994 19.3787 5.01028 18.7702 4.7384 18.1452C4.59725 17.7949 4.53662 17.4177 4.56094 17.0412C4.58526 16.6646 4.69391 16.2982 4.87897 15.9687C4.96264 15.7764 5.00847 15.5698 5.01398 15.3603C5.09166 14.2978 5.01398 13.2004 5.25257 12.1765C5.79634 9.84374 7.9714 8.20955 10.3703 8.16543C11.2321 8.14889 12.094 8.16543 12.9596 8.16543C13.7186 8.17796 14.4537 8.43178 15.057 8.8897C15.2248 9.01204 15.4218 9.08871 15.6285 9.11213C18.155 9.30882 19.8344 11.0846 19.8547 13.6029C19.8547 13.9706 19.8547 14.3382 19.8547 14.7059C19.8245 15.2694 19.9134 15.8329 20.1155 16.3603C20.2476 16.7049 20.3063 17.073 20.2878 17.4413C20.2694 17.8097 20.1742 18.1702 20.0082 18.5C19.9201 18.6906 19.8717 18.8969 19.8658 19.1066C19.8529 20.5901 19.8658 22.0735 19.8658 23.557C19.8743 23.9382 19.8502 24.3195 19.7937 24.6967C19.7007 25.0683 19.5839 25.4336 19.4441 25.7904ZM15.4768 14.011C14.6002 14.9412 13.5145 15.1912 12.3086 15.1526C11.2784 15.1195 10.2463 15.1526 9.21614 15.1379C8.82589 15.1379 8.66128 15.3033 8.66128 15.6893C8.66128 16.8971 8.64463 18.1066 8.67423 19.3143C8.68529 19.8118 8.80911 20.3004 9.03647 20.7438C9.26383 21.1871 9.58887 21.5738 9.9874 21.875C10.8826 22.5974 11.9331 22.6342 13.0077 22.5827C14.5206 22.5092 15.9892 21.2959 16.1094 19.7978C16.2333 18.2647 16.1612 16.7151 16.1408 15.1728C16.1303 14.9408 16.0647 14.7146 15.9493 14.5126C15.8338 14.3107 15.672 14.1388 15.4768 14.011ZM11.7278 27.1857C11.1397 26.9687 10.5552 26.8732 10.1261 26.5643C9.50837 26.1176 8.96091 26.1709 8.35241 26.4724C8.31181 26.4954 8.26825 26.5127 8.22294 26.5239C7.95291 26.5662 7.90482 26.7353 7.90667 26.9834C7.91961 28.0515 7.90667 29.1213 7.90667 30.1912V31.3456H16.9546V26.636C16.5385 26.4853 16.1242 26.3217 15.7006 26.1912C15.5708 26.1685 15.437 26.1885 15.3196 26.2482C14.6131 26.5662 13.9121 26.8971 13.115 27.2684C13.115 27.5974 13.115 28.068 13.115 28.5386C13.115 29.0754 12.8486 29.3842 12.4195 29.3787C11.9905 29.3732 11.7371 29.0625 11.7297 28.5239C11.7223 28.0662 11.7278 27.6103 11.7278 27.1857ZM6.44368 14.9283C6.98744 14.9926 7.39989 14.9926 7.70507 14.432C7.9788 13.9338 8.54291 13.7537 9.13661 13.7592C10.3814 13.7684 11.6261 13.7794 12.8708 13.7592C13.1546 13.7666 13.4369 13.7174 13.7012 13.6144C13.9654 13.5114 14.2062 13.3567 14.4092 13.1596C14.6122 12.9625 14.7734 12.7268 14.8831 12.4667C14.9928 12.2065 15.0489 11.9271 15.0481 11.645C15.0472 11.3629 14.9894 11.0839 14.8781 10.8244C14.7667 10.5649 14.6041 10.3302 14.3999 10.1343C14.1957 9.93844 13.954 9.78526 13.6891 9.68388C13.4242 9.58249 13.1416 9.53497 12.8579 9.54411C12.0281 9.53553 11.1982 9.53553 10.3684 9.54411C9.56329 9.55904 8.78316 9.82456 8.13786 10.3033C6.52691 11.4559 6.26057 13.0993 6.44368 14.9283ZM18.4546 19.5698C18.3314 19.5768 18.2079 19.5768 18.0847 19.5698C17.7 19.5184 17.5298 19.6323 17.4799 20.0643C17.3367 20.9746 16.9165 21.8194 16.2758 22.4853C16.161 22.6003 16.087 22.7494 16.065 22.9099C16.0428 23.5515 16.065 24.1967 16.065 24.8419L17.2598 25.2647C17.9996 25.5239 18.1013 25.4743 18.3547 24.7482C18.417 24.592 18.4539 24.4269 18.4639 24.2592C18.4565 22.7151 18.4546 21.1728 18.4546 19.5698ZM6.44553 19.5827C6.44553 21.2022 6.42888 22.7868 6.46033 24.3713C6.49619 24.6747 6.61092 24.9636 6.79324 25.2096C6.85191 25.2757 6.92569 25.327 7.0084 25.359C7.09111 25.391 7.18033 25.4028 7.26858 25.3934C7.69959 25.2834 8.11939 25.1339 8.52256 24.9467C8.5977 24.9007 8.66169 24.8388 8.70997 24.7654C8.75825 24.692 8.78962 24.6089 8.80185 24.5221C8.83329 24.0182 8.83329 23.513 8.80185 23.0092C8.78458 22.8193 8.70831 22.6394 8.5836 22.4945C8.00545 21.8718 7.59731 21.1124 7.39804 20.2886C7.34071 20.057 7.30187 19.8217 7.25563 19.5827H6.44553ZM6.49547 31.3474V26.8768C5.49856 27.1783 4.79759 27.7573 4.62373 28.7353C4.46837 29.5772 4.51646 30.4559 4.47207 31.3456L6.49547 31.3474ZM18.364 26.9228V31.3346H20.2986C20.2986 30.4926 20.367 29.6801 20.282 28.8879C20.1784 27.9209 19.3535 27.1287 18.364 26.9209V26.9228ZM10.2038 23.739C10.1883 24.0673 10.1921 24.3963 10.2149 24.7243C10.2395 24.9094 10.3341 25.0783 10.4794 25.1967C11.0677 25.5771 11.7557 25.777 12.4576 25.7715C13.1594 25.7659 13.8441 25.5551 14.4263 25.1654C14.5444 25.0827 14.6254 24.9574 14.6519 24.8162C14.6815 24.4375 14.663 24.0533 14.663 23.7371C13.9232 23.8198 13.1834 23.9614 12.4639 23.9614C11.7445 23.9614 10.9843 23.8217 10.2038 23.739ZM18.4287 14.9504C18.6987 12.5993 17.6427 10.5386 16.3942 10.7077C16.3498 11.3456 16.2962 11.9614 16.274 12.579C16.2882 12.7279 16.3439 12.8699 16.4349 12.989C16.7438 13.4706 17.1562 13.9081 17.3597 14.432C17.5224 14.864 17.7018 15.0202 18.1272 14.9522C18.2276 14.9449 18.3283 14.9442 18.4287 14.9504ZM7.25563 16.3419C6.80249 16.3419 6.28647 16.1985 6.12001 16.6728C5.99048 17.0671 5.99896 17.4934 6.14405 17.8823C6.32901 18.3309 6.83393 18.1893 7.25378 18.1673L7.25563 16.3419ZM17.6131 18.1581C18.3344 18.2261 18.5989 18.1581 18.7727 17.8474C18.9466 17.5368 18.9151 16.8162 18.708 16.579C18.3954 16.2114 18.0015 16.3346 17.6131 16.3566V18.1581Z" fill="white"/>
<path d="M12.1478 40.2831C12.0445 40.4715 11.9115 40.6422 11.7538 40.7886C11.2156 41.182 11.0454 41.6563 11.2711 42.2849C11.3462 42.44 11.3643 42.6164 11.322 42.7834C11.2798 42.9503 11.1799 43.0973 11.0399 43.1986C10.7181 43.4394 10.3814 43.3548 10.1003 43.1397C9.56394 42.7298 9.06087 42.75 8.5245 43.1397C8.23967 43.3456 7.91045 43.4449 7.58308 43.2077C7.25572 42.9706 7.22797 42.6195 7.35004 42.2611C7.55719 41.6526 7.40183 41.1857 6.86731 40.8107C6.58803 40.614 6.37718 40.3419 6.4974 39.9486C6.61762 39.5552 6.96719 39.4099 7.32415 39.4228C8.02143 39.4486 8.38024 39.1048 8.58554 38.489C8.69651 38.1544 8.9129 37.9026 9.32535 37.9099C9.7378 37.9173 9.88946 38.1691 10.03 38.4743C10.0518 38.5147 10.0709 38.5565 10.0874 38.5993C10.2409 39.1875 10.6422 39.3842 11.2304 39.4155C11.8685 39.4412 12.1625 39.7243 12.1478 40.2831ZM9.30871 40.2574L8.75384 40.6471L8.98134 41.2941H9.63608L9.86357 40.6508L9.30871 40.2574Z" fill="white"/>
<path d="M33.2474 25.6654H38.2412C38.41 25.6604 38.579 25.6703 38.7461 25.6948C38.8969 25.7245 39.0331 25.8044 39.1322 25.9213C39.2313 26.0381 39.2874 26.1851 39.2913 26.3378C39.2951 26.4906 39.2466 26.6402 39.1535 26.7619C39.0605 26.8835 38.9285 26.9701 38.7794 27.0073C38.6437 27.0347 38.5053 27.0464 38.367 27.0423H28.1131C27.9894 27.0461 27.8656 27.0387 27.7432 27.0202C27.5793 27.0025 27.4287 26.9223 27.3231 26.7965C27.2175 26.6706 27.1652 26.509 27.1772 26.3456C27.167 26.182 27.2221 26.0211 27.3304 25.8975C27.4388 25.774 27.5917 25.6979 27.7561 25.6856C27.9243 25.6663 28.0937 25.6589 28.2629 25.6636L33.2474 25.6654Z" fill="white"/>
<path d="M32.3966 28.5202C33.7801 28.5202 35.1623 28.5202 36.5433 28.5202C36.6972 28.5134 36.8514 28.5214 37.0038 28.5441C37.3478 28.6103 37.592 28.8493 37.5383 29.1765C37.4628 29.4377 37.3037 29.6674 37.0852 29.8309C36.9705 29.9283 36.7319 29.8971 36.5507 29.8971C33.7542 29.8971 30.9589 29.8971 28.1649 29.8971C28.0414 29.9021 27.9177 29.8978 27.795 29.8842C27.6161 29.8692 27.4504 29.7848 27.3338 29.6492C27.2171 29.5136 27.1589 29.3379 27.1717 29.1599C27.1731 29.0751 27.1914 28.9914 27.2255 28.9137C27.2596 28.8359 27.3088 28.7656 27.3704 28.7069C27.4319 28.6481 27.5045 28.602 27.5841 28.5712C27.6636 28.5405 27.7485 28.5256 27.8338 28.5276C28.1704 28.5129 28.5089 28.5276 28.8473 28.5276C30.0311 28.5215 31.2141 28.519 32.3966 28.5202Z" fill="white"/>
<path d="M10.4221 3.53861C10.4247 3.71529 10.358 3.88604 10.2361 4.0147C10.1143 4.14337 9.94681 4.21984 9.76921 4.22794C9.67699 4.23113 9.58505 4.2162 9.49865 4.18399C9.41226 4.15178 9.33311 4.10294 9.26575 4.04026C9.19839 3.97758 9.14414 3.9023 9.10612 3.81874C9.0681 3.73518 9.04706 3.64498 9.04419 3.55331C9.04614 3.36835 9.12143 3.19163 9.25372 3.06152C9.38601 2.93142 9.56461 2.85845 9.75071 2.85846C9.92935 2.86367 10.099 2.9374 10.2242 3.06419C10.3493 3.19098 10.4203 3.361 10.4221 3.53861Z" fill="white"/>
<path d="M3.81931 4.22795C3.63634 4.23039 3.45989 4.16049 3.32878 4.03363C3.19767 3.90676 3.12263 3.73333 3.12018 3.55148C3.11773 3.36963 3.18806 3.19426 3.3157 3.06395C3.44334 2.93364 3.61784 2.85907 3.80081 2.85663C3.89141 2.85542 3.98135 2.87196 4.06552 2.9053C4.14968 2.93865 4.22642 2.98814 4.29134 3.05096C4.35626 3.11377 4.40809 3.18868 4.44388 3.27141C4.47968 3.35413 4.49872 3.44306 4.49994 3.5331C4.50115 3.62314 4.48451 3.71254 4.45096 3.79619C4.41741 3.87984 4.36762 3.9561 4.30442 4.02063C4.24121 4.08515 4.16584 4.13667 4.08261 4.17224C3.99937 4.20782 3.9099 4.22675 3.81931 4.22795Z" fill="white"/>
<path d="M6.786 4.22793C6.64805 4.23084 6.51237 4.19268 6.39642 4.11836C6.28046 4.04403 6.18951 3.93694 6.13527 3.81084C6.08104 3.68474 6.06598 3.5454 6.09204 3.41073C6.1181 3.27606 6.18409 3.15222 6.28153 3.05512C6.37896 2.95801 6.50339 2.89209 6.63881 2.86582C6.77424 2.83955 6.91447 2.85413 7.0415 2.9077C7.16852 2.96126 7.27652 3.05136 7.35162 3.1664C7.42672 3.28145 7.46548 3.41619 7.46293 3.5533C7.45827 3.73045 7.38552 3.8991 7.25961 4.02457C7.13371 4.15005 6.96422 4.22282 6.786 4.22793Z" fill="white"/>
<path d="M28.605 39.864H19.0096C18.8405 39.8704 18.6712 39.8649 18.5028 39.8474C18.1477 39.796 17.9091 39.5478 17.948 39.2279C18.0177 38.9638 18.1722 38.7295 18.3882 38.5607C18.4991 38.4614 18.7396 38.4871 18.9208 38.4871H38.2985C38.4834 38.4871 38.722 38.4632 38.8312 38.5625C39.0472 38.7321 39.2007 38.968 39.2677 39.2335C39.3046 39.5533 39.0642 39.7996 38.7128 39.8474C38.5444 39.864 38.3751 39.8695 38.206 39.864H28.605Z" fill="white"/>
<path d="M27.7265 42.7169H18.8654C18.2458 42.7169 17.9147 42.4706 17.9202 42.0276C17.9258 41.5846 18.2606 41.3382 18.8764 41.3382H36.5932C36.7314 41.3339 36.8697 41.3443 37.0057 41.3695C37.1637 41.4016 37.305 41.4885 37.4044 41.6147C37.5038 41.741 37.5547 41.8983 37.548 42.0584C37.5414 42.2186 37.4775 42.3711 37.368 42.4888C37.2584 42.6064 37.1103 42.6814 36.9502 42.7004C36.7817 42.7154 36.6125 42.7203 36.4434 42.7151L27.7265 42.7169Z" fill="white"/>
<path d="M33.2011 15.6342C31.5088 15.6342 29.8165 15.6342 28.1223 15.6342C27.9133 15.6342 27.6525 15.6342 27.5101 15.5165C27.4183 15.4443 27.3431 15.3535 27.2892 15.2502C27.2353 15.1469 27.2041 15.0334 27.1975 14.9173C27.2652 14.6805 27.4153 14.4752 27.6211 14.3382C27.7468 14.2426 27.9743 14.2665 28.1574 14.2647H38.4501C38.9754 14.2794 39.3046 14.5588 39.2917 14.9761C39.2787 15.3934 38.9754 15.625 38.4705 15.625C36.7097 15.6379 34.9563 15.6342 33.2011 15.6342Z" fill="white"/>
<path d="M32.367 18.4871C30.9848 18.4871 29.6026 18.4871 28.2204 18.4871C28.0666 18.4915 27.9126 18.4847 27.7598 18.4669C27.6042 18.4444 27.4613 18.3687 27.3557 18.2528C27.2501 18.137 27.1884 17.9882 27.1811 17.832C27.1739 17.6759 27.2216 17.5221 27.3161 17.3971C27.4106 17.2721 27.5459 17.1837 27.6988 17.1471C27.8645 17.1154 28.0333 17.103 28.2019 17.1103H36.5415C36.6648 17.1059 36.7884 17.109 36.9114 17.1195C37.0903 17.1281 37.2588 17.2056 37.381 17.3357C37.5033 17.4658 37.5697 17.6382 37.5661 17.8162C37.5659 17.9044 37.5479 17.9917 37.5134 18.073C37.4788 18.1543 37.4282 18.2279 37.3647 18.2895C37.3011 18.3511 37.2258 18.3995 37.1432 18.4319C37.0606 18.4642 36.9724 18.4799 36.8836 18.4779C36.2714 18.4982 35.6555 18.489 35.0341 18.489C34.1444 18.489 33.2548 18.4871 32.367 18.4871Z" fill="white"/>
</g>
<defs>
<clipPath id="clip0_110_3209">
<rect width="43" height="47" fill="white"/>
</clipPath>
</defs>
</svg>
