<svg width="44" height="44" viewBox="0 0 44 44" fill="none" xmlns="http://www.w3.org/2000/svg">
<g clip-path="url(#clip0_110_3199)">
<path d="M28.941 37.5258C29.6907 39.212 30.3907 40.7972 31.1085 42.3751C31.1521 42.428 31.2064 42.4706 31.2677 42.5002C31.329 42.5298 31.3959 42.5457 31.4638 42.5466C31.8191 42.5701 32.1744 42.5466 32.5298 42.5575C32.9899 42.5737 33.2777 42.8572 33.2813 43.2706C33.2848 43.6841 33.0006 43.9711 32.544 43.9928C32.4249 43.9928 32.3059 43.9928 32.1887 43.9928H11.6473C11.0337 43.9928 10.727 43.7521 10.727 43.2706C10.727 42.7976 11.0521 42.4744 11.6473 42.5665C12.5942 42.7164 13.0224 42.3137 13.3368 41.4435C13.7615 40.2646 14.3353 39.1398 14.8434 37.9916C14.9021 37.8598 14.9482 37.7225 15.0211 37.5203H14.4526C10.7732 37.5203 7.09199 37.5203 3.41082 37.5203C1.63419 37.5203 0.323034 36.4226 0.0352198 34.7057C0.00300311 34.4664 -0.00947675 34.2249 -0.00208938 33.9835C-0.000904962 26.5524 -0.000312752 19.1201 -0.000312752 11.6865C-0.000312752 9.52002 1.36769 8.13887 3.49609 8.13525C5.16612 8.13525 6.83616 8.13525 8.50619 8.13525H9.04984C9.04984 7.47447 9.03029 6.84799 9.04984 6.22331C9.10491 4.77897 9.47445 3.43935 10.3805 2.2929C11.4874 0.902725 12.9797 0.231107 14.6817 0.050565C16.8244 -0.176918 18.7413 0.344849 20.1893 2.08708C21.1203 3.21006 21.4898 4.56232 21.5573 6.00305C21.5911 6.68911 21.5573 7.37878 21.5573 8.10095H23.1865C23.2469 7.34087 23.2256 6.56815 23.3837 5.83334C23.6757 4.45517 24.4235 3.22025 25.5025 2.33427C26.5816 1.44828 27.9268 0.964719 29.3141 0.96411C31.1914 0.935223 33.0687 0.935223 34.946 0.96411C35.8021 0.966113 36.6481 1.15107 37.4293 1.50697C38.2105 1.86287 38.9092 2.38176 39.4802 3.02994C40.0512 3.67812 40.4817 4.44109 40.7436 5.26932C41.0056 6.09754 41.0932 6.97249 41.0007 7.83736C41.0007 7.92583 41.0007 8.0179 41.0007 8.14067C41.1908 8.184 41.388 8.22372 41.5817 8.27608C42.2684 8.45328 42.8778 8.85723 43.3142 9.42451C43.7506 9.99179 43.9892 10.6903 43.9926 11.4103C44.0009 19.0244 44.0009 26.639 43.9926 34.2543C43.9926 36.1392 42.5393 37.5167 40.5939 37.5221C36.9127 37.5221 33.2333 37.5221 29.5521 37.5221L28.941 37.5258ZM19.2495 16.7905C19.3898 16.8248 19.4751 16.8464 19.5604 16.8627C23.7124 17.6733 26.9281 21.3474 27.1466 25.6298C27.2407 27.4732 27.1821 29.3237 27.1928 31.1707C27.1928 31.3512 27.1928 31.5209 27.1928 31.7123H42.5766V28.9265C42.5766 23.16 42.5766 17.3929 42.5766 11.6251C42.5766 10.5238 41.9832 9.78 40.999 9.60306C40.7094 9.55251 40.5619 9.62292 40.4216 9.91179C39.5332 11.7172 38.1297 12.8907 36.1861 13.2861C35.328 13.4667 34.4237 13.4288 33.5407 13.4324C33.0787 13.4324 32.7376 13.5263 32.4409 13.9162C32.0785 14.3913 31.6773 14.8346 31.2417 15.2414C30.9279 15.5358 30.5713 15.7794 30.1846 15.9636C29.9128 16.1078 29.6045 16.1655 29.3 16.1291C28.9954 16.0927 28.7088 15.9639 28.4773 15.7596C27.9443 15.3028 27.7879 14.698 27.9052 14.0119C27.9443 13.7844 27.9976 13.5569 28.0438 13.3222C26.0717 12.7987 24.6682 11.6414 23.7799 9.81791C23.7355 9.72583 23.6253 9.60306 23.5436 9.60126C22.8987 9.58321 22.2537 9.59043 21.6195 9.59043C21.598 9.64895 21.5819 9.7094 21.5715 9.77097C21.6104 10.7341 21.4344 11.6938 21.0566 12.578C20.6787 13.4622 20.1089 14.248 19.3898 14.8767C19.3101 14.9586 19.2622 15.0669 19.2548 15.1818C19.2424 15.7072 19.2495 16.2308 19.2495 16.7905ZM1.42099 33.2036C1.42099 33.6152 1.405 33.9745 1.42099 34.3338C1.44057 34.7269 1.58418 35.1031 1.83056 35.4068C2.07694 35.7105 2.413 35.9255 2.78899 36.02C3.05007 36.0701 3.31594 36.0895 3.58137 36.0778C15.8472 36.0778 28.1131 36.0778 40.3789 36.0778C40.5406 36.0778 40.704 36.0778 40.8657 36.0688C41.5941 36.0218 42.2746 35.5452 42.4487 34.8339C42.5766 34.3121 42.5588 33.7506 42.6068 33.209L1.42099 33.2036ZM3.43213 31.7195V31.1779C3.43213 29.4645 3.40904 27.7476 3.44279 26.0396C3.49424 24.0046 4.17971 22.0386 5.40054 20.4245C6.62137 18.8105 8.31462 17.6316 10.2366 17.0577C10.6097 16.9475 11.1249 16.9349 11.3026 16.6803C11.4803 16.4258 11.3381 15.8986 11.3648 15.4942C11.3813 15.3407 11.3595 15.1855 11.3015 15.0429C11.2434 14.9003 11.1509 14.7748 11.0326 14.6781C9.97837 13.714 9.29788 12.3988 9.11379 10.9698C9.05339 10.5166 9.03562 10.0562 8.99476 9.57959C7.13108 9.57959 5.29937 9.57959 3.46767 9.57959C2.15652 9.5814 1.42099 10.3361 1.42099 11.6829V31.7231L3.43213 31.7195ZM32.1567 2.4247C31.1369 2.4247 30.1153 2.38137 29.0991 2.4247C28.2917 2.46819 27.5091 2.7227 26.8269 3.16361C26.1447 3.60452 25.586 4.21691 25.2049 4.94151C24.8238 5.66611 24.6332 6.4784 24.6515 7.29979C24.6699 8.12117 24.8965 8.92385 25.3095 9.63015C26.1268 11.0239 27.3616 11.7967 28.9445 11.9772C29.5681 12.053 29.8186 12.4087 29.6641 12.99C29.5966 13.25 29.4864 13.5028 29.4473 13.7682C29.4147 14.0486 29.398 14.3307 29.3976 14.6131C29.6872 14.4741 30.0354 14.3983 30.2539 14.1852C30.8278 13.6237 31.3554 13.0117 31.8831 12.4033C31.9955 12.2657 32.1377 12.1563 32.2986 12.0836C32.4594 12.011 32.6346 11.977 32.8105 11.9844C33.8001 11.9844 34.8021 12.0314 35.7721 11.8851C38.0284 11.5547 39.7393 9.34128 39.6185 7.05019C39.4906 4.55149 37.6234 2.55649 35.2498 2.43372C34.2229 2.38137 33.1853 2.4247 32.1567 2.4247ZM21.5733 19.1014L19.1446 22.5317C18.6365 23.2539 18.5388 23.2828 17.7233 22.9758C17.3094 23.8118 16.9381 24.6422 17.2667 25.6244C17.3982 26.018 17.4107 26.4513 17.4799 26.8647C17.7464 28.4752 18.0147 30.088 18.2848 31.7033H21.472C21.472 30.5388 21.472 29.3995 21.472 28.2603C21.472 27.7656 21.7669 27.4695 22.1987 27.4804C22.6304 27.4912 22.8791 27.7819 22.8844 28.2549C22.8951 29.0818 22.8844 29.9069 22.8844 30.7337C22.8844 31.0587 22.8844 31.3819 22.8844 31.7051H25.7271C25.7414 31.6251 25.7509 31.5443 25.7555 31.4631C25.7555 29.7065 25.7875 27.948 25.7555 26.1913C25.6862 23.0697 24.2169 20.7624 21.5733 19.1014ZM9.04806 19.1014C6.56078 20.6324 5.06841 22.7754 4.8943 25.7074C4.7806 27.623 4.8641 29.5512 4.85877 31.4722C4.86243 31.5472 4.87014 31.6219 4.88186 31.696H7.72447V30.8511C7.72447 29.9791 7.72447 29.1071 7.72447 28.2368C7.71691 28.1386 7.72986 28.0397 7.76246 27.9469C7.79507 27.854 7.84659 27.7692 7.91367 27.698C7.98075 27.6267 8.06187 27.5707 8.15173 27.5335C8.24159 27.4963 8.33816 27.4788 8.43512 27.4822C8.84908 27.4822 9.1209 27.771 9.14577 28.2368C9.14577 28.4174 9.14577 28.5979 9.14577 28.7785V31.7033H12.3259C12.6813 29.5368 13.0011 27.3702 13.4203 25.2435C13.598 24.3407 13.1432 23.707 12.9069 22.9542C12.1962 23.2936 11.9759 23.2358 11.5513 22.6364C11.1534 22.0749 10.759 21.5134 10.3628 20.952L9.04806 19.1014ZM29.5592 42.534C29.5525 42.4679 29.5394 42.4026 29.5202 42.339C28.8468 40.8225 28.1664 39.3095 27.5055 37.7875C27.3953 37.533 27.2301 37.5239 27.0133 37.5239C23.6733 37.5239 20.3332 37.5239 16.9949 37.5239C16.8734 37.5108 16.7512 37.5419 16.65 37.6116C16.5489 37.6814 16.4753 37.7853 16.4424 37.9049C15.8223 39.3312 15.1845 40.7502 14.5556 42.1729C14.5059 42.2849 14.4739 42.4058 14.4277 42.534H29.5592ZM20.2302 7.92221C19.086 7.92221 18.0804 7.95652 17.0802 7.92221C15.634 7.85361 14.2127 7.72542 13.0952 6.60426C12.4254 7.68751 12.4254 7.68751 10.4676 7.98902C10.4676 8.69855 10.4569 9.4153 10.4676 10.1321C10.5138 12.629 12.3473 14.6456 14.831 14.9453C17.1228 15.2234 19.4271 13.6526 19.9566 11.3038C20.1964 10.2386 20.1449 9.10657 20.2302 7.92221ZM10.4925 6.46704C11.498 6.55551 11.7148 6.40927 11.9937 5.46864C12.0701 5.21047 12.0968 4.92702 12.23 4.69953C12.3632 4.47205 12.5729 4.27887 12.763 4.2572C13.0163 4.26625 13.2582 4.36674 13.4452 4.54066C13.6051 4.67245 13.6762 4.91799 13.7846 5.11297C13.9333 5.3911 14.1383 5.63412 14.386 5.8261C14.6337 6.01807 14.9185 6.15467 15.2218 6.22692C16.835 6.63675 18.4731 6.45079 20.1022 6.49051C20.2213 3.76793 18.6809 1.51657 15.6749 1.44796C12.8269 1.38297 10.4587 3.06923 10.4925 6.46704ZM14.8541 25.1676C14.4881 27.372 14.1274 29.5331 13.765 31.7177H16.8386C16.4726 29.5169 16.1102 27.3414 15.7495 25.1676H14.8541ZM15.3089 19.1556C16.1137 18.4966 16.9079 17.8539 17.6914 17.2003C17.7657 17.1329 17.8121 17.0393 17.8211 16.9385C17.837 16.6045 17.8211 16.2669 17.8211 15.8769C17.0269 16.224 16.1718 16.404 15.3073 16.4058C14.4429 16.4077 13.587 16.2315 12.7914 15.8877C12.7741 16.1601 12.7741 16.4333 12.7914 16.7056C12.7982 16.9033 12.868 17.0934 12.9904 17.2472C13.733 17.8737 14.4988 18.4912 15.3089 19.1556ZM18.1782 21.4268L20.2302 18.5182C19.8642 18.4298 19.5693 18.3377 19.269 18.2926C19.0736 18.2583 18.8035 18.1824 18.6792 18.2781C17.9312 18.845 17.2152 19.4553 16.4602 20.0836L18.1782 21.4268ZM10.3823 18.511L12.4361 21.4268L14.1559 20.0745C13.4008 19.4553 12.6866 18.8631 11.9617 18.2835C11.8627 18.2278 11.7472 18.2105 11.6366 18.2348C11.2475 18.3052 10.8638 18.4027 10.3823 18.511ZM15.3196 21.0115C15.2325 21.0729 15.1579 21.1181 15.0904 21.174C14.7599 21.4466 14.2465 21.6687 14.1541 22.0099C14.0617 22.3512 14.417 22.7989 14.5307 23.2124C14.6444 23.6258 14.8416 23.7251 15.252 23.7305C15.7175 23.7305 15.9876 23.6222 16.1031 23.1401C16.1741 22.8386 16.35 22.5624 16.4282 22.2609C16.4454 22.1844 16.4456 22.105 16.4287 22.0285C16.4118 21.9519 16.3782 21.8802 16.3305 21.8186C16.016 21.5279 15.6624 21.2805 15.3196 21.0115Z" fill="white"/>
<path d="M34.9233 22.6346C33.55 22.6346 32.1749 22.6346 30.8016 22.6346C29.963 22.6346 29.549 22.2121 29.5437 21.3708C29.5437 20.5601 29.5437 19.7459 29.5437 18.9389C29.5437 18.1679 29.9541 17.7274 30.7181 17.7238C33.5109 17.7118 36.3032 17.7118 39.0949 17.7238C39.8872 17.7238 40.2728 18.1553 40.2781 18.9696C40.2834 19.7838 40.2781 20.5944 40.2781 21.4015C40.2781 22.2085 39.8659 22.6382 39.0433 22.64C37.6647 22.6382 36.2967 22.6346 34.9233 22.6346ZM38.8319 21.1686V19.1934H30.9881V21.1686H38.8319Z" fill="white"/>
<path d="M34.9089 24.5159H39.3825C39.9599 24.5159 40.2708 24.7578 40.2708 25.2127C40.2708 25.6677 39.9563 25.9566 39.3665 25.9584C36.3853 25.9584 33.4035 25.9584 30.4212 25.9584C29.8455 25.9584 29.4795 25.5973 29.5471 25.1351C29.6021 24.7524 29.8882 24.5195 30.343 24.5195C31.8673 24.5122 33.3881 24.5159 34.9089 24.5159Z" fill="white"/>
<path d="M34.8985 29.4284C33.4665 29.4284 32.0351 29.4284 30.6044 29.4284C30.4259 29.4362 30.2471 29.4235 30.0714 29.3905C29.7267 29.3057 29.4975 29.0294 29.5633 28.7081C29.6544 28.441 29.8244 28.209 30.0501 28.0437C30.162 27.9498 30.3912 27.9859 30.567 27.9859C33.4594 27.9859 36.3518 27.9859 39.2441 27.9859C39.3764 27.9819 39.5089 27.988 39.6403 28.0039C39.8195 28.0169 39.9863 28.1015 40.1042 28.2393C40.2221 28.377 40.2814 28.5566 40.2692 28.7388C40.2703 28.914 40.204 29.0827 40.0846 29.2091C39.9652 29.3356 39.802 29.4097 39.6296 29.4158C39.4826 29.4296 39.3349 29.4345 39.1873 29.4302C37.7588 29.429 36.3292 29.4284 34.8985 29.4284Z" fill="white"/>
<path d="M22.0428 35.3123C21.8558 35.3151 21.6748 35.2453 21.5368 35.1171C21.3988 34.989 21.3141 34.8121 21.3001 34.6226C21.2972 34.5249 21.3139 34.4276 21.3491 34.3366C21.3843 34.2456 21.4373 34.1628 21.5049 34.0933C21.5725 34.0237 21.6533 33.9689 21.7424 33.932C21.8315 33.8951 21.927 33.877 22.0232 33.8788C22.1157 33.8751 22.208 33.8905 22.2944 33.9242C22.3809 33.9578 22.4597 34.0089 22.5261 34.0744C22.5926 34.1399 22.6452 34.2184 22.6809 34.3052C22.7167 34.392 22.7347 34.4852 22.7339 34.5793C22.7367 34.7693 22.6658 34.9528 22.5364 35.09C22.4071 35.2272 22.2297 35.3071 22.0428 35.3123Z" fill="white"/>
<path d="M32.157 5.12737C33.3509 5.12737 34.5466 5.12737 35.7422 5.12737C36.3463 5.12737 36.7247 5.68344 36.4245 6.14924C36.3456 6.25998 36.2448 6.3527 36.1285 6.42142C36.0122 6.49014 35.8831 6.53334 35.7493 6.54824C33.3438 6.57713 30.94 6.56991 28.5345 6.56088C28.0494 6.56088 27.7545 6.25215 27.7652 5.82066C27.7758 5.38916 28.0672 5.12737 28.57 5.12557C29.7603 5.12376 30.956 5.12737 32.157 5.12737Z" fill="white"/>
<path d="M29.4228 9.49834C29.0852 9.49834 28.7459 9.52001 28.4083 9.49834C28.2304 9.48919 28.0627 9.41092 27.94 9.2797C27.8172 9.14849 27.7488 8.97437 27.7488 8.79332C27.7488 8.61228 27.8172 8.43816 27.94 8.30694C28.0627 8.17573 28.2304 8.09746 28.4083 8.0883C29.0834 8.06122 29.7603 8.06303 30.4372 8.0883C30.6165 8.09156 30.7876 8.16552 30.9142 8.29454C31.0408 8.42357 31.1132 8.59757 31.1159 8.77978C31.0977 8.97757 31.0089 9.16173 30.8662 9.29746C30.7234 9.43319 30.5367 9.51108 30.3413 9.5164H29.4139L29.4228 9.49834Z" fill="white"/>
<path d="M34.8077 9.49654C34.4666 9.49654 34.1255 9.52001 33.7879 9.49654C33.7021 9.49566 33.6173 9.47722 33.5386 9.44234C33.4599 9.40745 33.3889 9.35683 33.3299 9.29348C33.2709 9.23014 33.225 9.15536 33.1951 9.07362C33.1651 8.99188 33.1516 8.90485 33.1554 8.8177C33.146 8.72719 33.1553 8.63569 33.1827 8.54904C33.2101 8.4624 33.255 8.38253 33.3146 8.31455C33.3741 8.24656 33.447 8.19196 33.5285 8.15425C33.61 8.11653 33.6983 8.09653 33.7879 8.09553C34.4808 8.06484 35.1772 8.06484 35.8701 8.09553C35.9597 8.0977 36.0479 8.11841 36.1293 8.15638C36.2107 8.19435 36.2837 8.2488 36.3437 8.31638C36.4037 8.38397 36.4495 8.46328 36.4784 8.54948C36.5072 8.63567 36.5185 8.72694 36.5115 8.8177C36.4777 9.20586 36.2698 9.46946 35.8701 9.49654C35.5166 9.5164 35.1612 9.49654 34.8077 9.49654Z" fill="white"/>
</g>
<defs>
<clipPath id="clip0_110_3199">
<rect width="44" height="44" fill="white"/>
</clipPath>
</defs>
</svg>
