<svg width="51" height="46" viewBox="0 0 51 46" fill="none" xmlns="http://www.w3.org/2000/svg">
<g clip-path="url(#clip0_110_3185)">
<path d="M18.862 44.9929C19.0502 43.9169 19.2472 42.7463 19.4507 41.5842C19.5711 40.8977 19.7287 40.2134 19.8031 39.5226C19.8194 39.2552 19.7291 38.992 19.5514 38.7888C18.2951 37.545 17.0104 36.3291 15.73 35.109C15.4126 34.8077 15.1675 34.4935 15.3382 34.033C15.5089 33.5725 15.8679 33.4606 16.3165 33.4004C18.0806 33.1615 19.8447 32.9119 21.6021 32.6278C21.7343 32.5969 21.8586 32.5398 21.9674 32.4598C22.0762 32.3799 22.1671 32.2789 22.2347 32.163C23.0488 30.6071 23.828 29.0341 24.6094 27.461C24.8041 27.0672 25.0471 26.753 25.5373 26.753C26.0276 26.753 26.2662 27.0758 26.461 27.4653C27.227 29.0061 28.0193 30.5361 28.7656 32.0855C28.8311 32.2476 28.9423 32.388 29.0861 32.4902C29.23 32.5924 29.4005 32.652 29.5776 32.6622C31.3285 32.8968 33.0794 33.1615 34.815 33.4004C35.2528 33.4606 35.5833 33.6155 35.7321 34.0459C35.8809 34.4763 35.6708 34.7991 35.3666 35.0896C34.0753 36.3227 32.7752 37.5493 31.5058 38.806C31.4172 38.9064 31.3502 39.0233 31.3088 39.1498C31.2674 39.2763 31.2525 39.4097 31.265 39.542C31.5364 41.2636 31.8516 42.9959 32.1602 44.7196C32.2368 45.15 32.2215 45.5481 31.8253 45.83C31.4292 46.1119 31.079 46.0043 30.7004 45.8063C29.1683 45.0079 27.6363 44.244 26.1239 43.4198C25.9444 43.3077 25.7356 43.2494 25.523 43.2521C25.3104 43.2548 25.1032 43.3183 24.9267 43.4349C23.3947 44.2548 21.8473 45.0488 20.2977 45.8386C19.5645 46.2023 18.8663 45.8235 18.862 44.9929ZM32.7008 34.896C31.3723 34.7023 29.9365 34.4785 28.4942 34.2913C28.2771 34.2729 28.0693 34.1962 27.8936 34.0694C27.718 33.9426 27.5812 33.7707 27.4984 33.5725C27.1482 32.8451 26.7783 32.1286 26.404 31.4076L25.5286 29.6646C25.3863 29.9207 25.2878 30.095 25.2047 30.2542C24.6487 31.3582 24.0906 32.4643 23.5457 33.5747C23.4636 33.7736 23.3267 33.9461 23.1504 34.0726C22.9741 34.1992 22.7653 34.275 22.5476 34.2913C21.7882 34.373 21.0331 34.5065 20.278 34.6076C19.5951 34.7087 18.9101 34.8228 18.3607 34.9003C19.3216 35.9074 20.278 36.9403 21.2717 37.9345C21.4498 38.086 21.5831 38.2818 21.6578 38.5014C21.7325 38.721 21.7458 38.9563 21.6963 39.1826C21.589 39.7099 21.5015 40.2392 21.4117 40.7665C21.2629 41.6272 21.1185 42.5009 20.9543 43.4693C22.3375 42.757 23.6135 42.1157 24.8742 41.4465C25.067 41.3298 25.289 41.268 25.5155 41.268C25.7419 41.268 25.9639 41.3298 26.1567 41.4465C27.2511 42.0361 28.376 42.5978 29.4879 43.168C29.652 43.2541 29.8227 43.3273 30.081 43.4478C29.838 42.0555 29.6433 40.7665 29.3806 39.4904C29.2928 39.1829 29.2969 38.857 29.3923 38.5517C29.4878 38.2465 29.6707 37.9747 29.919 37.7688C30.9017 36.8585 31.7838 35.8557 32.7008 34.896Z" fill="white"/>
<path d="M25.1456 12.7955C26.8484 12.9267 28.7985 13.0107 30.7245 13.2452C33.8368 13.6369 36.3428 15.9997 37.0825 19.2492C37.3911 20.6027 37.4546 22.0101 37.6297 23.3917C37.9055 25.5565 38.182 27.7214 38.4592 29.8862C38.5402 30.5318 38.2403 30.9837 37.7107 31.0504C37.181 31.1171 36.7564 30.7492 36.6776 30.1165C36.2771 26.8305 35.8963 23.5444 35.4804 20.2627C35.0952 17.2156 33.0007 15.2788 29.9191 14.9173C26.8247 14.5722 23.7 14.5845 20.6085 14.9539C18.0763 15.2422 16.1021 16.9702 15.5068 19.5827C15.2398 20.762 15.1938 21.9886 15.0537 23.1958C14.7845 25.5049 14.5241 27.8161 14.2461 30.1251C14.163 30.8116 13.7493 31.1494 13.1715 31.0612C12.6331 30.9773 12.3726 30.5383 12.4471 29.8755C12.8016 26.6927 13.1737 23.5122 13.4998 20.3273C13.8784 16.6109 16.3035 13.8714 19.9541 13.2754C21.5803 13.0085 23.2459 12.9633 25.1456 12.7955Z" fill="white"/>
<path d="M2.69638 44.9326C2.89336 43.8072 3.09034 42.5892 3.3289 41.3798C3.39643 41.1632 3.39578 40.9316 3.32703 40.7154C3.25829 40.4991 3.12467 40.3084 2.9437 40.1682C2.06824 39.4086 1.265 38.5801 0.426748 37.7839C0.124714 37.4955 -0.100717 37.1878 0.0459224 36.7445C0.192562 36.3012 0.551501 36.1441 1.00236 36.086C2.26522 35.9203 3.52588 35.7438 4.77998 35.5351C4.89426 35.5047 5.00109 35.4519 5.09401 35.3797C5.18693 35.3076 5.26401 35.2177 5.32058 35.1154C5.89182 34.0395 6.43241 32.9463 6.97082 31.8531C7.17218 31.4442 7.40855 31.0978 7.92945 31.1042C8.45035 31.1107 8.67359 31.47 8.87276 31.8746C9.40242 32.9506 9.95396 34.0266 10.4814 35.1025C10.5323 35.235 10.6217 35.3499 10.7384 35.433C10.8551 35.516 10.9941 35.5635 11.138 35.5695C12.4009 35.7266 13.6572 35.9246 14.9178 36.0967C15.3293 36.1527 15.6598 36.3119 15.7933 36.7143C15.8519 36.8948 15.8537 37.0885 15.7987 37.2701C15.7436 37.4517 15.6342 37.6127 15.4847 37.7322C14.5545 38.6124 13.62 39.4904 12.7182 40.4006C12.6368 40.4944 12.5755 40.6033 12.5379 40.7209C12.5003 40.8384 12.4872 40.9623 12.4994 41.0849C12.6876 42.3395 12.9502 43.5855 13.1166 44.8422C13.1338 45.184 13.0215 45.5198 12.8014 45.7848C12.53 46.1076 12.112 46.0323 11.7443 45.8407C10.6193 45.2576 9.48777 44.6851 8.37156 44.0848C8.24389 44.0042 8.09538 43.9614 7.94368 43.9614C7.79198 43.9614 7.64347 44.0042 7.5158 44.0848C6.38499 44.6916 5.24397 45.2827 4.09274 45.858C3.35517 46.213 2.67012 45.7934 2.69638 44.9326ZM2.94151 37.616C3.47992 38.1669 3.91984 38.7286 4.47357 39.1568C5.25054 39.7658 5.42563 40.448 5.16518 41.3712C5.00511 42.0671 4.88383 42.7711 4.80187 43.4801C5.7014 43.0174 6.50026 42.6343 7.27067 42.204C7.46878 42.0787 7.69937 42.012 7.93492 42.012C8.17048 42.012 8.40107 42.0787 8.59918 42.204C9.36959 42.6343 10.1641 43.0152 11.0548 43.4736C10.8907 42.5418 10.7638 41.7176 10.5974 40.8913C10.5268 40.633 10.5328 40.3602 10.6146 40.1052C10.6964 39.8501 10.8507 39.6234 11.0592 39.4516C11.6917 38.8749 12.2564 38.2229 12.8583 37.5966C12.3899 37.5278 11.8909 37.4568 11.3919 37.3814C9.20325 37.0457 9.64098 37.3965 8.6911 35.5136C8.44597 35.0337 8.19647 34.5581 7.91413 34.0072C7.45451 34.9239 7.03867 35.7287 6.63596 36.5551C6.56301 36.7305 6.44308 36.8831 6.28892 36.9968C6.13476 37.1105 5.95215 37.1809 5.7605 37.2007C4.82594 37.3212 3.89576 37.4675 2.94151 37.6095V37.616Z" fill="white"/>
<path d="M38.9337 45.9849C38.2311 45.9849 37.8394 45.505 37.9335 44.8917C38.1524 43.6242 38.3909 42.3589 38.5901 41.0871C38.6024 40.9637 38.5893 40.8392 38.5517 40.7209C38.5141 40.6026 38.4527 40.493 38.3712 40.3985C37.4958 39.514 36.594 38.6554 35.6857 37.8161C35.3574 37.5084 35.143 37.1705 35.2918 36.7251C35.4406 36.2796 35.8236 36.1505 36.2723 36.0924C37.5155 35.9332 38.7564 35.7567 39.993 35.548C40.1086 35.5222 40.2177 35.4736 40.3136 35.4052C40.4095 35.3368 40.4903 35.2499 40.5511 35.1499C41.1158 34.089 41.6454 33.0108 42.1751 31.9349C42.3808 31.5195 42.5931 31.1193 43.1447 31.115C43.6962 31.1107 43.9173 31.4916 44.1252 31.9112C44.6548 32.9872 45.1867 34.0631 45.7557 35.124C45.8203 35.2311 45.9061 35.3243 46.008 35.3983C46.1099 35.4722 46.2258 35.5253 46.3489 35.5544C47.6205 35.7696 48.9008 35.9332 50.1768 36.1118C50.5883 36.1699 50.9735 36.342 51.0041 36.7574C51.0301 37.0979 50.9255 37.4357 50.7108 37.7042C49.8354 38.6274 48.8658 39.4817 47.9619 40.3899C47.879 40.4819 47.8156 40.5892 47.7754 40.7056C47.7352 40.822 47.719 40.9451 47.7277 41.0677C47.8984 42.2534 48.1129 43.4349 48.3252 44.6098C48.4084 45.0682 48.4609 45.5115 48.021 45.8278C47.5811 46.1442 47.163 45.9569 46.7494 45.7396C45.6901 45.1822 44.6242 44.6442 43.5715 44.0804C43.4512 44.005 43.3114 43.9648 43.1687 43.9648C43.026 43.9648 42.8863 44.005 42.766 44.0804C41.6717 44.6701 40.5489 45.236 39.4371 45.802C39.2728 45.8719 39.1047 45.9329 38.9337 45.9849ZM46.2832 43.4693C46.1081 42.4622 45.9724 41.582 45.7951 40.7083C45.7441 40.5089 45.7509 40.2994 45.8147 40.1035C45.8786 39.9077 45.9969 39.7333 46.1563 39.6001C46.478 39.3096 46.7778 38.9975 47.0952 38.7027C47.4519 38.367 47.8174 38.0399 48.2727 37.6268C47.244 37.4826 46.4014 37.3448 45.5522 37.2545C45.2806 37.2397 45.0194 37.1471 44.8008 36.988C44.5822 36.8289 44.4158 36.6103 44.3222 36.3593C43.9785 35.591 43.5715 34.8529 43.1469 34.0072C42.7091 34.868 42.2999 35.6297 41.9453 36.4088C41.8559 36.6428 41.6993 36.8462 41.4946 36.9945C41.2898 37.1427 41.0457 37.2293 40.7919 37.2437C39.9164 37.3427 39.0409 37.4847 38.2224 37.6031C38.7936 38.2056 39.3167 38.8275 39.9164 39.3634C40.1646 39.5571 40.3478 39.8197 40.4422 40.1171C40.5367 40.4145 40.538 40.733 40.4461 41.0311C40.2644 41.7994 40.1725 42.5891 40.0258 43.4671C40.9276 43.0088 41.7242 42.6257 42.4968 42.1996C42.6963 42.0757 42.9274 42.0099 43.1633 42.0099C43.3992 42.0099 43.6303 42.0757 43.8297 42.1996C44.6045 42.6257 45.399 43.0131 46.2832 43.4693Z" fill="white"/>
<path d="M25.4649 1.77059e-05C28.4546 0.0129294 30.8206 1.75385 31.4816 4.43087C32.2345 7.47803 30.1684 11.3171 27.1962 12.4254C26.558 12.6699 25.8747 12.7801 25.1905 12.749C24.5063 12.7178 23.8363 12.546 23.2238 12.2446C20.755 11.0868 18.9493 7.92133 19.2251 5.24861C19.5468 2.1326 22.1054 -0.0150459 25.4649 1.77059e-05ZM29.8423 5.79736C29.8226 5.48629 29.7846 5.17661 29.7284 4.86987C29.2754 2.89654 27.3822 1.62043 25.1695 1.77537C22.9568 1.93031 21.3612 3.21287 21.0679 5.0657C20.7528 7.05195 21.9675 9.52453 23.7512 10.5123C24.8456 11.1148 25.9399 11.1449 27.0211 10.5123C28.8223 9.46858 29.7066 7.86323 29.8423 5.79736Z" fill="white"/>
<path d="M17.4631 29.7722C17.6513 27.0822 17.8403 24.3916 18.0299 21.7002C18.0409 21.541 18.0584 21.3796 18.0847 21.2225C18.1104 20.9987 18.2213 20.7927 18.395 20.6458C18.5687 20.499 18.7925 20.4221 19.0214 20.4306C19.2521 20.4423 19.4688 20.5432 19.6241 20.7113C19.7795 20.8793 19.861 21.101 19.8509 21.3279C19.8334 22.0596 19.7743 22.7891 19.724 23.5208C19.578 25.5866 19.4321 27.6532 19.2862 29.7205C19.2731 29.8798 19.2578 30.0412 19.2337 30.1982C19.1483 30.7793 18.7806 31.0978 18.2554 31.059C17.7629 31.0181 17.4521 30.6502 17.4478 30.095C17.4478 29.9874 17.4478 29.8798 17.4478 29.7743L17.4631 29.7722Z" fill="white"/>
<path d="M30.9912 21.8874C30.9912 21.7454 30.9715 21.6034 30.9672 21.457C30.954 20.8523 31.2955 20.4413 31.8229 20.4241C32.3504 20.4069 32.6984 20.7835 32.7509 21.3473C32.8589 22.7202 32.9618 24.0932 33.0595 25.4661C33.1668 26.9122 33.2674 28.3562 33.3703 29.8001C33.3838 29.9252 33.3896 30.0509 33.3878 30.1767C33.3898 30.3934 33.3102 30.6032 33.1644 30.7657C33.0185 30.9282 32.8167 31.0319 32.5977 31.0569C32.4846 31.0757 32.3687 31.0719 32.2571 31.0455C32.1456 31.0191 32.0406 30.9708 31.9485 30.9034C31.8565 30.836 31.7793 30.751 31.7216 30.6535C31.6639 30.556 31.6269 30.4479 31.6128 30.336C31.5275 29.8087 31.5099 29.2707 31.4706 28.7349C31.3086 26.4524 31.1481 24.1692 30.989 21.8853L30.9912 21.8874Z" fill="white"/>
</g>
<defs>
<clipPath id="clip0_110_3185">
<rect width="51" height="46" fill="white"/>
</clipPath>
</defs>
</svg>
