<svg width="41" height="52" viewBox="0 0 41 52" fill="none" xmlns="http://www.w3.org/2000/svg">
<g clip-path="url(#clip0_110_3223)">
<path d="M21.5191 32.5968V36.7039C21.5191 37.1268 21.5068 37.5498 21.5191 37.9727C21.5375 38.4647 21.4231 38.8836 20.9411 39.1174C20.4918 39.3349 20.1242 39.154 19.7158 38.9324C19.193 38.6518 18.613 38.3671 18.0371 38.3224C16.8587 38.2167 15.7906 39.0401 15.4026 40.1665C15.2291 40.7096 15.2318 41.2932 15.4101 41.8347C15.5884 42.3762 15.9334 42.8481 16.3961 43.1835C16.8588 43.5189 17.4159 43.7008 17.9882 43.7034C18.5606 43.706 19.1193 43.5292 19.5851 43.1981C19.6688 43.1391 19.7464 43.072 19.8261 43.009C19.9727 42.878 20.1557 42.7941 20.351 42.7683C20.5463 42.7426 20.7449 42.7761 20.9207 42.8646C21.1113 42.9441 21.2726 43.0804 21.3823 43.2548C21.492 43.4292 21.5448 43.6331 21.5334 43.8386V49.9708H25.1788C26.1039 49.9708 26.5961 50.3144 26.6083 50.9691C26.6206 51.6238 26.1162 52.004 25.1624 52.004H4.10286C1.57048 52.004 0.00204224 50.4445 0 47.9376V31.9319C0 30.8787 0.31042 30.5656 1.35809 30.5656H25.5137C25.1502 28.6117 25.6444 26.9749 27.1475 25.7062C27.6119 25.3062 28.1526 25.0037 28.7373 24.8168C29.3219 24.6299 29.9384 24.5624 30.5499 24.6184C33.0986 24.8217 35.4512 27.1477 34.7916 30.5656H35.7943C37.1197 30.5656 38.4492 30.5656 39.7706 30.5656C40.6201 30.5656 40.9959 30.9295 40.9959 31.7652C40.9959 37.2292 40.9959 42.6932 40.9959 48.1571C40.9959 50.3693 39.3478 51.9776 37.1157 51.9959C36.3171 51.9959 35.5186 51.9959 34.7201 51.9959C34.036 51.9959 33.5642 51.5689 33.5642 50.9793C33.5642 50.3896 34.0339 49.9728 34.7222 49.9627C35.5391 49.9627 36.3559 49.9627 37.1728 49.9627C38.2123 49.9464 38.9557 49.2307 38.9578 48.21C38.9659 43.0835 38.9659 37.9578 38.9578 32.8326C38.9578 32.7818 38.9476 32.733 38.9333 32.5988H38.3941C36.7297 32.5988 35.0653 32.5988 33.4008 32.5988C32.925 32.5988 32.5247 32.4951 32.2796 32.056C32.0346 31.6168 32.1755 31.2244 32.4287 30.836C32.7909 30.2914 32.9426 29.6345 32.8555 28.9871C32.7685 28.3396 32.4486 27.7456 31.9553 27.315C31.462 26.8844 30.8286 26.6464 30.1725 26.6452C29.5164 26.644 28.8821 26.8796 28.3871 27.3083C27.879 27.7307 27.5466 28.326 27.4545 28.9786C27.3624 29.6313 27.5172 30.2947 27.8888 30.8401C28.1461 31.2467 28.2666 31.6351 28.0236 32.06C27.7806 32.485 27.3681 32.5948 26.8943 32.5927C25.1298 32.5907 23.3653 32.5968 21.5191 32.5968ZM19.4585 32.6395H2.04224V33.1417C2.04224 38.0784 2.04224 43.0164 2.04224 47.9559C2.04224 49.31 2.70801 49.9667 4.08448 49.9667C9.02534 49.9667 13.9669 49.9667 18.9091 49.9667H19.4564V45.5444C17.2712 46.0568 15.4373 45.5241 14.116 43.7145C13.0029 42.1896 12.8682 40.4857 13.7769 38.8348C15.0023 36.5982 16.9873 35.8845 19.4605 36.4376L19.4585 32.6395Z" fill="white"/>
<path d="M16.1336 24.3805C14.8797 26.3873 13.1642 27.3063 10.9136 26.8794C8.91632 26.4991 7.60521 25.2243 7.1845 23.2378C6.70049 20.9545 7.6338 19.2222 9.6209 17.9758C9.5147 17.8559 9.41667 17.742 9.32273 17.6403C8.27098 16.5851 7.21105 15.5359 6.15726 14.4807C5.54459 13.8565 5.54459 13.3522 6.15726 12.7321C10.0116 8.89064 13.8674 5.05324 17.7245 1.21992C19.3583 -0.396506 21.6374 -0.406672 23.2671 1.21992C27.1311 5.05053 30.9868 8.88928 34.8344 12.7362C35.4573 13.3461 35.4593 13.8707 34.8446 14.4888C33.3476 15.9873 31.8405 17.4777 30.3517 18.9762C30.0331 19.2954 29.6859 19.515 29.2203 19.3828C28.7546 19.2507 28.532 18.907 28.4279 18.4313C28.3323 17.9508 28.1076 17.5052 27.7777 17.1419C27.4478 16.7786 27.0251 16.5113 26.5545 16.3684C26.084 16.2255 25.5834 16.2124 25.1059 16.3305C24.6285 16.4486 24.1923 16.6935 23.8436 17.039C23.495 17.3845 23.2471 17.8178 23.1264 18.2926C23.0056 18.7673 23.0165 19.2658 23.158 19.7349C23.2994 20.204 23.566 20.6261 23.9294 20.9562C24.2929 21.2862 24.7394 21.5119 25.2216 21.6092C25.6974 21.7149 26.0507 21.9162 26.1855 22.392C26.3203 22.8678 26.1059 23.2053 25.7771 23.5204C24.3066 24.9762 22.8485 26.4402 21.3781 27.896C20.7654 28.5059 20.2405 28.5059 19.6217 27.896C18.4699 26.735 17.3283 25.5801 16.1336 24.3805ZM8.16886 13.584C8.33429 13.7568 8.44865 13.8809 8.57731 13.9907C9.7904 15.1984 11.0015 16.4102 12.2186 17.6139C12.5536 17.9453 12.77 18.3072 12.6026 18.7891C12.4351 19.271 12.0593 19.4621 11.5508 19.5211C10.0069 19.7 8.9102 21.0928 9.12872 22.5465C9.21209 23.2077 9.53314 23.8164 10.0325 24.2601C10.5318 24.7038 11.1757 24.9524 11.8449 24.96C13.2397 24.96 14.3589 23.9556 14.5529 22.4937C14.6162 22.0098 14.7898 21.6478 15.2636 21.477C15.7374 21.3063 16.1132 21.5035 16.4501 21.843C17.6592 23.063 18.8763 24.2626 20.0894 25.4683C20.2181 25.5964 20.3549 25.7143 20.4305 25.7834L23.2181 23.0182C20.1221 20.863 20.696 17.2642 22.3216 15.6559C22.7602 15.1951 23.2893 14.829 23.876 14.5803C24.4627 14.3316 25.0945 14.2057 25.7321 14.2103C27.5252 14.2103 28.8649 15.05 29.8003 16.4204L32.7901 13.5129C32.6858 13.4368 32.5856 13.3554 32.4899 13.2689L21.9724 2.78957C20.9512 1.77296 20.0404 1.77296 19.0254 2.78957L10.591 11.1828C9.80266 11.9798 9.00006 12.7626 8.16886 13.584Z" fill="white"/>
<path d="M31.1277 50.9793C31.1304 51.1106 31.107 51.2412 31.0588 51.3635C31.0106 51.4858 30.9386 51.5974 30.8469 51.6919C30.7552 51.7864 30.6457 51.8619 30.5246 51.9141C30.4035 51.9662 30.2732 51.9941 30.1413 51.9959C29.8671 51.9906 29.6058 51.8792 29.4129 51.6852C29.2199 51.4912 29.1105 51.2299 29.1079 50.9569C29.118 50.694 29.2299 50.4453 29.4204 50.2629C29.6108 50.0805 29.8648 49.9787 30.129 49.9789C30.2611 49.9776 30.3921 50.0025 30.5143 50.0524C30.6364 50.1023 30.7474 50.176 30.8404 50.2692C30.9335 50.3625 31.0069 50.4734 31.0563 50.5953C31.1056 50.7173 31.1299 50.8478 31.1277 50.9793Z" fill="white"/>
</g>
<defs>
<clipPath id="clip0_110_3223">
<rect width="41" height="52" fill="white"/>
</clipPath>
</defs>
</svg>
