<svg width="25" height="25" viewBox="0 0 25 25" fill="none" xmlns="http://www.w3.org/2000/svg">
<g clip-path="url(#clip0_138_51)">
<path d="M13.4055 17.8185V19.6418H13.7005C14.4724 19.6418 15.2432 19.6418 16.014 19.6418C17.578 19.6508 18.7387 20.8067 18.7498 22.3751C18.7498 22.9333 18.7498 23.4923 18.7498 24.052C18.7498 24.6266 18.3801 25 17.8103 25.0011C14.2698 25.0011 10.7297 25.0011 7.18989 25.0011C7.06541 25.0089 6.94068 24.9902 6.82398 24.9462C6.70727 24.9021 6.60126 24.8337 6.51295 24.7456C6.42465 24.6574 6.35607 24.5515 6.31177 24.4348C6.26747 24.3181 6.24845 24.1934 6.25598 24.0688C6.25598 23.3354 6.218 22.5931 6.31184 21.8709C6.4794 20.5943 7.59652 19.6642 8.88903 19.6452C9.78272 19.6329 10.6764 19.6452 11.5858 19.6452V17.8699C10.9155 17.7 10.2452 17.5703 9.59728 17.3557C8.00879 16.8258 6.61052 15.8413 5.57565 14.524C5.51957 14.4418 5.44258 14.3761 5.35264 14.3336C5.26269 14.2912 5.16306 14.2735 5.06401 14.2825C4.05861 14.3373 3.09453 14.2121 2.22206 13.6744C0.814494 12.8035 0.0503853 11.538 0.0168718 9.87569C-0.0132905 8.38438 0.00570056 6.8819 0.0112862 5.38613C0.0157546 4.34535 0.789918 3.57734 1.83442 3.57734C2.4008 3.57734 2.96718 3.57734 3.56149 3.57734C3.56707 3.49014 3.57713 3.41077 3.57825 3.3314C3.57825 2.81045 3.57154 2.2895 3.57825 1.76631C3.57913 1.29851 3.76507 0.850098 4.0954 0.519107C4.42574 0.188115 4.8736 0.00147673 5.34106 0C10.1171 0 14.8928 0.0018632 19.6681 0.00558959C20.1344 0.00854434 20.5805 0.19613 20.909 0.527331C21.2374 0.858532 21.4215 1.3064 21.4209 1.77302C21.4298 2.35769 21.4209 2.94348 21.4209 3.55498C21.5091 3.56169 21.5884 3.57175 21.6677 3.57175C22.1883 3.57175 22.7089 3.56616 23.2317 3.57175C23.6976 3.57527 24.1434 3.76244 24.4723 4.09266C24.8013 4.42289 24.9869 4.86956 24.9889 5.33582C24.999 6.87855 25.0091 8.42239 24.9889 9.96512C24.9543 12.2904 22.9781 14.2736 20.6556 14.2635C19.9396 14.2635 19.4748 14.4547 18.9889 15.0002C17.5534 16.6156 15.7068 17.5155 13.5619 17.795C13.5173 17.8006 13.4692 17.8084 13.4055 17.8185ZM5.36228 1.79873V2.02231C5.36228 4.32858 5.3567 6.63373 5.36228 8.93999C5.36878 9.34877 5.40613 9.75648 5.474 10.1596C6.07165 13.9069 9.78272 16.5944 13.5262 15.9985C17.101 15.4284 19.6268 12.4804 19.6335 8.85503C19.6379 6.59609 19.6379 4.33678 19.6335 2.07709C19.6335 1.98654 19.6245 1.89711 19.6201 1.79873H5.36228ZM8.04337 23.1912H16.9602C16.9602 22.9095 16.9602 22.6501 16.9602 22.3908C16.9546 21.8016 16.5893 21.4327 16.004 21.4294C15.3337 21.4294 14.6634 21.4294 13.9931 21.4294C12.3219 21.4294 10.6504 21.4294 8.9784 21.4294C8.46899 21.4294 8.07577 21.7647 8.04337 22.2365C8.02661 22.5495 8.04337 22.8648 8.04337 23.1912ZM20.7495 12.4592C20.7841 12.4614 20.8188 12.4614 20.8534 12.4592C21.496 12.3847 22.0893 12.0777 22.5214 11.5958C22.9535 11.114 23.1946 10.4907 23.1993 9.84327C23.2116 8.42128 23.1993 6.99928 23.1993 5.57729C23.1963 5.50879 23.1896 5.4405 23.1792 5.37271H21.4231V5.6902C21.4231 6.73993 21.441 7.79077 21.4164 8.8405C21.4099 9.41594 21.3561 9.98988 21.2555 10.5565C21.1338 11.1982 20.9237 11.8242 20.7506 12.4626L20.7495 12.4592ZM1.80314 5.3716C1.80314 6.94786 1.78639 8.50177 1.81208 10.049C1.83416 10.6231 2.06727 11.1689 2.46671 11.5816C2.69865 11.8461 2.98112 12.0615 3.29748 12.2151C3.61384 12.3687 3.95771 12.4574 4.30884 12.476C4.27421 12.3776 4.2541 12.3161 4.23064 12.2524C3.79466 11.1847 3.57189 10.0419 3.57489 8.88857V5.3716H1.80314Z" fill="#00ADEF"/>
</g>
<defs>
<clipPath id="clip0_138_51">
<rect width="25" height="25" fill="white"/>
</clipPath>
</defs>
</svg>
