<svg width="32" height="32" viewBox="0 0 32 32" fill="none" xmlns="http://www.w3.org/2000/svg">
<path d="M22.6667 4.33333H22.3333V4C22.3333 3.448 21.8853 3 21.3333 3C20.7813 3 20.3333 3.448 20.3333 4V4.33333H11.6667V4C11.6667 3.448 11.2187 3 10.6667 3C10.1147 3 9.66667 3.448 9.66667 4V4.33333H9.33333C5.84133 4.33333 3 7.17467 3 10.6667V22.6667C3 26.1587 5.84133 29 9.33333 29H22.6667C26.1587 29 29 26.1587 29 22.6667V10.6667C29 7.17467 26.1587 4.33333 22.6667 4.33333ZM9.33333 6.33333H9.66667V8C9.66667 8.552 10.1147 9 10.6667 9C11.2187 9 11.6667 8.552 11.6667 8V6.33333H20.3333V8C20.3333 8.552 20.7813 9 21.3333 9C21.8853 9 22.3333 8.552 22.3333 8V6.33333H22.6667C25.056 6.33333 27 8.27733 27 10.6667V11H5V10.6667C5 8.27733 6.944 6.33333 9.33333 6.33333ZM22.6667 27H9.33333C6.944 27 5 25.056 5 22.6667V13H27V22.6667C27 25.056 25.056 27 22.6667 27ZM22.6667 17.3333C22.6667 18.0693 22.0693 18.6667 21.3333 18.6667C20.5973 18.6667 20 18.0693 20 17.3333C20 16.5973 20.5973 16 21.3333 16C22.0693 16 22.6667 16.5973 22.6667 17.3333ZM17.3333 17.3333C17.3333 18.0693 16.736 18.6667 16 18.6667C15.264 18.6667 14.6667 18.0693 14.6667 17.3333C14.6667 16.5973 15.264 16 16 16C16.736 16 17.3333 16.5973 17.3333 17.3333ZM12 17.3333C12 18.0693 11.4027 18.6667 10.6667 18.6667C9.93067 18.6667 9.33333 18.0693 9.33333 17.3333C9.33333 16.5973 9.93067 16 10.6667 16C11.4027 16 12 16.5973 12 17.3333ZM22.6667 22.6667C22.6667 23.4027 22.0693 24 21.3333 24C20.5973 24 20 23.4027 20 22.6667C20 21.9307 20.5973 21.3333 21.3333 21.3333C22.0693 21.3333 22.6667 21.9307 22.6667 22.6667ZM17.3333 22.6667C17.3333 23.4027 16.736 24 16 24C15.264 24 14.6667 23.4027 14.6667 22.6667C14.6667 21.9307 15.264 21.3333 16 21.3333C16.736 21.3333 17.3333 21.9307 17.3333 22.6667ZM12 22.6667C12 23.4027 11.4027 24 10.6667 24C9.93067 24 9.33333 23.4027 9.33333 22.6667C9.33333 21.9307 9.93067 21.3333 10.6667 21.3333C11.4027 21.3333 12 21.9307 12 22.6667Z" fill="#00ADEF"/>
</svg>
