<svg width="31" height="31" viewBox="0 0 31 31" fill="none" xmlns="http://www.w3.org/2000/svg">
<path d="M15.5 2.90625C8.556 2.90625 2.90625 8.556 2.90625 15.5C2.90625 22.444 8.556 28.0938 15.5 28.0938C22.444 28.0938 28.0938 22.444 28.0938 15.5C28.0938 8.556 22.444 2.90625 15.5 2.90625ZM15.5 26.1562C9.62421 26.1562 4.84375 21.3758 4.84375 15.5C4.84375 9.62421 9.62421 4.84375 15.5 4.84375C21.3758 4.84375 26.1562 9.62421 26.1562 15.5C26.1562 21.3758 21.3758 26.1562 15.5 26.1562ZM21.6354 15.5C21.6354 16.0347 21.2014 16.4688 20.6667 16.4688H15.5C14.9653 16.4688 14.5312 16.0347 14.5312 15.5V9.04167C14.5312 8.50692 14.9653 8.07292 15.5 8.07292C16.0347 8.07292 16.4688 8.50692 16.4688 9.04167V14.5312H20.6667C21.2014 14.5312 21.6354 14.9653 21.6354 15.5Z" fill="#00ADEF"/>
</svg>
