<svg width="30" height="30" viewBox="0 0 30 30" fill="none" xmlns="http://www.w3.org/2000/svg">
<path d="M21.875 15C21.875 15.69 21.315 16.25 20.625 16.25C19.935 16.25 19.375 15.69 19.375 15C19.375 14.31 19.935 13.75 20.625 13.75C21.315 13.75 21.875 14.31 21.875 15ZM15 13.75C14.31 13.75 13.75 14.31 13.75 15C13.75 15.69 14.31 16.25 15 16.25C15.69 16.25 16.25 15.69 16.25 15C16.25 14.31 15.69 13.75 15 13.75ZM9.375 13.75C8.685 13.75 8.125 14.31 8.125 15C8.125 15.69 8.685 16.25 9.375 16.25C10.065 16.25 10.625 15.69 10.625 15C10.625 14.31 10.065 13.75 9.375 13.75ZM27.1875 15C27.1875 21.72 21.72 27.1875 15 27.1875C8.28 27.1875 2.8125 21.72 2.8125 15C2.8125 8.28 8.28 2.8125 15 2.8125C21.72 2.8125 27.1875 8.28 27.1875 15ZM25.3125 15C25.3125 9.31375 20.6862 4.6875 15 4.6875C9.31375 4.6875 4.6875 9.31375 4.6875 15C4.6875 20.6862 9.31375 25.3125 15 25.3125C20.6862 25.3125 25.3125 20.6862 25.3125 15Z" fill="#00ADEF"/>
</svg>
