<svg width="32" height="32" viewBox="0 0 32 32" fill="none" xmlns="http://www.w3.org/2000/svg">
<path d="M16 17.0007C19.492 17.0007 22.3333 14.1593 22.3333 10.6673C22.3333 7.17532 19.492 4.33398 16 4.33398C12.508 4.33398 9.66667 7.17532 9.66667 10.6673C9.66667 14.1593 12.508 17.0007 16 17.0007ZM16 6.33398C18.3893 6.33398 20.3333 8.27798 20.3333 10.6673C20.3333 13.0567 18.3893 15.0007 16 15.0007C13.6107 15.0007 11.6667 13.0567 11.6667 10.6673C11.6667 8.27798 13.6107 6.33398 16 6.33398ZM25 23.2007V24.3553C25 25.458 24.596 26.5153 23.864 27.3327C23.668 27.554 23.3933 27.666 23.1187 27.666C22.88 27.666 22.6427 27.582 22.452 27.4113C22.04 27.0433 22.0054 26.4114 22.3734 25.9993C22.776 25.5487 22.9987 24.9646 22.9987 24.3553V23.2007C22.9987 21.5354 21.8947 20.0954 20.3147 19.6994C20.056 19.634 19.7867 19.6699 19.5667 19.7939C17.3507 21.0286 14.636 21.0233 12.4373 19.7993C12.2067 19.6687 11.9374 19.6353 11.6827 19.6979C10.1014 20.0953 8.99731 21.5354 8.99731 23.2007V24.3553C8.99731 24.9646 9.21997 25.5487 9.62264 25.9993C9.99064 26.4114 9.95603 27.0433 9.54403 27.4113C9.13336 27.778 8.5 27.7447 8.132 27.3327C7.4 26.5153 6.99601 25.4566 6.99601 24.3553V23.2007C6.99601 20.618 8.72131 18.3806 11.192 17.758C11.9386 17.5686 12.7533 17.6766 13.416 18.0566C15.004 18.9393 16.9773 18.9446 18.584 18.0513C19.2373 17.6766 20.0493 17.5673 20.8 17.7593C23.2746 18.3806 25 20.618 25 23.2007ZM23.0574 5.22868C23.2414 4.70868 23.812 4.4353 24.3333 4.6193C26.3267 5.3233 27.6667 7.21798 27.6667 9.33398C27.6667 10.7553 27.0587 12.1127 26 13.0607C25.808 13.2314 25.5707 13.3153 25.3333 13.3153C25.0587 13.3153 24.7853 13.2033 24.588 12.9819C24.22 12.5699 24.2547 11.938 24.6667 11.57C25.3027 11.002 25.6667 10.1873 25.6667 9.33398C25.6667 8.06465 24.8627 6.92739 23.6667 6.50472C23.1453 6.32072 22.8734 5.74868 23.0574 5.22868ZM29 19.778V20.7407C29 21.2927 28.552 21.7407 28 21.7407C27.448 21.7407 27 21.2927 27 20.7407V19.778C27 18.4673 26.132 17.334 24.8893 17.022C24.3547 16.8873 24.028 16.3446 24.1627 15.8086C24.2987 15.2726 24.844 14.9487 25.376 15.082C27.5106 15.618 29 17.5487 29 19.778ZM6 13.6527C4.94133 12.7047 4.33333 11.3473 4.33333 9.92594C4.33333 7.80994 5.67333 5.91526 7.66667 5.21126C8.192 5.02726 8.75863 5.30064 8.94263 5.82064C9.12663 6.34197 8.85467 6.91268 8.33333 7.09668C7.13733 7.51935 6.33333 8.65661 6.33333 9.92594C6.33333 10.7779 6.69733 11.5926 7.33333 12.1619C7.74533 12.5299 7.78003 13.1621 7.41203 13.5741C7.21603 13.7954 6.94133 13.9074 6.66667 13.9074C6.42933 13.9074 6.19067 13.8233 6 13.6527ZM7.11068 17.6139C5.86801 17.9259 5 19.0593 5 20.37V21.334C5 21.886 4.552 22.334 4 22.334C3.448 22.334 3 21.886 3 21.334V20.3713C3 18.1419 4.49069 16.2113 6.62402 15.6753C7.15869 15.5446 7.70265 15.866 7.83732 16.402C7.97199 16.9354 7.64668 17.4793 7.11068 17.6139Z" fill="#00ADEF"/>
</svg>
