<svg width="49" height="49" viewBox="0 0 49 49" fill="none" xmlns="http://www.w3.org/2000/svg">
<g clip-path="url(#clip0_138_217)">
<path d="M29.0099 32.0082C20.9174 38.3581 9.40109 36.4536 3.5355 28.6374C-1.83497 21.4742 -1.01328 11.1509 5.50333 4.98218C8.71049 1.90555 12.9471 0.131319 17.3897 0.00438291C21.8322 -0.122553 26.1633 1.40688 29.5409 4.29537C36.6727 10.3651 38.0359 21.2003 31.9259 29.0861C32.3135 29.4274 32.7328 29.7666 33.1163 30.1395C34.0054 31.0096 34.8692 31.9071 35.7688 32.7646C35.8591 32.8457 35.9647 32.9079 36.0794 32.9473C36.1942 32.9868 36.3157 33.0027 36.4367 32.9942C37.1552 32.8491 37.8987 32.8875 38.5984 33.1059C39.2981 33.3243 39.9314 33.7156 40.4398 34.2436C42.8599 36.6537 45.2723 39.0738 47.677 41.5036C48.3088 42.1244 48.7376 42.9221 48.9067 43.7915C49.0758 44.6609 48.9774 45.5612 48.6244 46.3735C48.2714 47.1859 47.6804 47.8721 46.9293 48.3417C46.1783 48.8112 45.3026 49.0421 44.4176 49.0038C43.4077 48.9865 42.4421 48.5858 41.7166 47.883C39.1483 45.3548 36.5821 42.8077 34.0602 40.2269C33.072 39.2177 32.7349 37.9368 33.0067 36.5358C33.0439 36.3871 33.038 36.231 32.9899 36.0855C32.9418 35.9401 32.8534 35.8113 32.7349 35.7141C31.475 34.4879 30.2446 33.2428 29.0099 32.0082ZM34.1318 17.9074C34.1318 14.7006 33.1813 11.5658 31.4005 8.89892C29.6196 6.23204 27.0883 4.15276 24.1262 2.92376C21.1642 1.69476 17.9043 1.37117 14.7584 1.99388C11.6126 2.61659 8.72184 4.15765 6.45142 6.42239C4.18099 8.68712 2.63275 11.5739 2.00226 14.7181C1.37178 17.8623 1.68734 21.1228 2.90909 24.0878C4.13084 27.0527 6.20396 29.589 8.86656 31.3764C11.5292 33.1637 14.6618 34.1219 17.8687 34.1298C20.002 34.1331 22.115 33.7161 24.087 32.9025C26.059 32.0889 27.8514 30.8947 29.3617 29.3882C30.872 27.8817 32.0706 26.0923 32.8891 24.1224C33.7076 22.1525 34.1299 20.0406 34.1318 17.9074ZM47.3104 44.6322C47.3062 43.9314 47.035 43.2586 46.5519 42.7508C46.1769 42.359 45.7892 41.9797 45.4037 41.5963C43.367 39.5541 41.3254 37.5133 39.2789 35.4739C38.0822 34.2878 36.3419 34.3194 35.2758 35.5182C34.3003 36.6116 34.3741 38.1875 35.4865 39.3104C37.8547 41.6981 40.2305 44.0746 42.6141 46.4398C42.7603 46.5911 42.9212 46.7273 43.0945 46.8464C43.4946 47.1363 43.9694 47.3054 44.4627 47.3338C44.9559 47.3622 45.447 47.2486 45.8777 47.0066C46.8174 46.4988 47.2704 45.6666 47.3146 44.6343L47.3104 44.6322ZM33.8263 34.3657L34.3657 33.9275L30.8261 30.3797L30.2994 30.8369L33.8263 34.3657Z" fill="white"/>
<path d="M4.17781 17.9226C4.17698 15.2058 4.98229 12.5499 6.49179 10.2911C8.00129 8.03227 10.1471 6.2721 12.6575 5.23342C15.168 4.19473 17.9302 3.92425 20.5945 4.45621C23.2587 4.98816 25.7052 6.29864 27.6243 8.22173C29.5433 10.1448 30.8486 12.594 31.3748 15.2593C31.9011 17.9246 31.6246 20.6861 30.5805 23.1942C29.5364 25.7023 27.7715 27.8442 25.5094 29.3488C23.2472 30.8534 20.5895 31.6529 17.8726 31.6463C16.0711 31.6482 14.287 31.2944 12.6227 30.605C10.9584 29.9157 9.44658 28.9044 8.17413 27.6292C6.90167 26.3541 5.89361 24.8402 5.20781 23.1745C4.52201 21.5087 4.17198 19.7239 4.17781 17.9226ZM17.9084 5.87165C15.5268 5.87041 13.1982 6.57509 11.2169 7.89664C9.23563 9.2182 7.69052 11.0973 6.77681 13.2966C5.86309 15.4959 5.62178 17.9167 6.08335 20.2531C6.54492 22.5894 7.68868 24.7366 9.3701 26.4232C11.0515 28.1099 13.1952 29.2603 15.5302 29.7292C17.8652 30.1981 20.2868 29.9644 22.4891 29.0577C24.6913 28.1509 26.5754 26.6118 27.9032 24.6348C29.231 22.6577 29.9431 20.3315 29.9493 17.9499C29.9585 16.3644 29.6536 14.7928 29.0522 13.3257C28.4508 11.8586 27.5649 10.5252 26.4454 9.40226C25.326 8.27935 23.9953 7.38923 22.53 6.78325C21.0648 6.17728 19.494 5.86745 17.9084 5.87165Z" fill="white"/>
<path d="M8.36426 18.2913C8.39586 15.4176 9.24915 13.2181 10.9684 11.3767C11.4298 10.8816 11.8996 10.8184 12.2915 11.1787C12.6834 11.539 12.6581 12.0214 12.2072 12.5165C10.3363 14.5784 9.68809 16.9738 10.2626 19.7028C10.3974 20.3348 10.172 20.7983 9.66632 20.9142C9.16066 21.0301 8.73507 20.7035 8.61287 20.0715C8.49278 19.3699 8.41482 18.6578 8.36426 18.2913Z" fill="white"/>
</g>
<defs>
<clipPath id="clip0_138_217">
<rect width="49" height="49" fill="white"/>
</clipPath>
</defs>
</svg>
