<svg width="43" height="42" viewBox="0 0 43 42" fill="none" xmlns="http://www.w3.org/2000/svg">
<g clip-path="url(#clip0_138_199)">
<path d="M33.6196 31.1532V31.7081C33.6196 34.2111 33.6196 36.7153 33.6196 39.2206C33.6196 40.9928 32.6104 41.9983 30.8325 41.9983H12.149C10.3997 41.9983 9.38212 40.9895 9.38044 39.2442C9.38044 36.7254 9.38044 34.2072 9.38044 31.6896V31.1532H8.87585C6.81934 31.1532 4.76227 31.1532 2.70464 31.1532C1.06133 31.1498 0 30.0973 0 28.4529C0 19.8631 0 11.2756 0 2.69026C0 1.05761 1.04788 0 2.67772 0C15.2366 0 27.7898 0 40.3374 0C41.942 0 42.9966 1.06097 42.9983 2.65495C42.9983 11.2593 42.9983 19.8631 42.9983 28.4663C42.9983 30.0838 41.9319 31.1448 40.3071 31.1566C38.2484 31.1566 36.1913 31.1566 34.1342 31.1566L33.6196 31.1532ZM1.68199 8.40706V28.3856C1.68199 29.1876 1.96624 29.4701 2.77191 29.4718H8.94312C9.076 29.4718 9.21056 29.4567 9.37876 29.4466V28.8732C9.37876 23.5162 9.37876 18.1587 9.37876 12.8006C9.37876 11.1057 10.4031 10.0784 12.0918 10.0784C18.3611 10.0784 24.6299 10.0784 30.8981 10.0784C31.1358 10.0715 31.3736 10.0884 31.6079 10.1288C32.8627 10.3945 33.6162 11.3932 33.6162 12.7955C33.6162 18.1682 33.6162 23.5398 33.6162 28.9102V29.4735H40.1759C41.0422 29.4735 41.3113 29.2045 41.313 28.3503V8.40706H1.68199ZM11.0607 25.9913C11.0607 30.3629 11.0607 34.7408 11.0607 39.1248C11.0607 40.0866 11.2878 40.3169 12.2381 40.3169H30.7501C31.7055 40.3169 31.9376 40.0849 31.9376 39.1298V12.9469C31.9376 11.9851 31.7105 11.7548 30.7602 11.7548H12.2583C11.3013 11.7548 11.0809 11.9817 11.0809 12.9317C11.0675 17.2888 11.0607 21.642 11.0607 25.9913ZM1.68199 6.6853H41.313C41.313 5.25778 41.3247 3.85884 41.313 2.46159C41.313 2.01938 40.9682 1.72345 40.5241 1.68814C40.398 1.67805 40.2718 1.68814 40.1457 1.68814H2.85938C2.74668 1.68814 2.63399 1.68814 2.52298 1.68814C2.03016 1.71672 1.6904 2.02442 1.68199 2.50362C1.68199 3.88406 1.68199 5.26786 1.68199 6.6853Z" fill="#00ADEF"/>
<path d="M21.5075 13.564C22.9916 13.5643 24.4424 14.0046 25.6762 14.8292C26.91 15.6539 27.8714 16.8257 28.4389 18.1967C29.0064 19.5676 29.1545 21.0759 28.8644 22.531C28.5743 23.986 27.859 25.3223 26.8091 26.371C25.7591 27.4196 24.4217 28.1334 22.9659 28.4221C21.5101 28.7109 20.0014 28.5615 18.6305 27.993C17.2596 27.4244 16.0882 26.4622 15.2644 25.2281C14.4406 23.994 14.0014 22.5434 14.0024 21.0597C14.0038 19.071 14.7951 17.1641 16.2025 15.7585C17.6099 14.3529 19.518 13.5635 21.5075 13.564ZM18.8735 22.3964C17.7365 20.5301 18.4732 18.852 19.4655 18.0432C20.0337 17.5766 20.7456 17.3201 21.4809 17.317C22.2163 17.314 22.9302 17.5645 23.5023 18.0264C24.7924 19.0521 25.0161 20.6293 24.123 22.3981C24.5798 22.6406 24.9777 22.9804 25.2887 23.3936C25.5997 23.8067 25.8161 24.2831 25.9227 24.7891C27.6434 22.9782 28.0824 19.264 25.477 16.8192C24.8956 16.2762 24.209 15.8582 23.4596 15.591C22.7102 15.3238 21.9139 15.2131 21.12 15.2657C20.3261 15.3183 19.5515 15.5332 18.8439 15.897C18.1364 16.2608 17.511 16.7658 17.0065 17.3808C14.8619 19.9769 15.6693 23.4439 17.0906 24.742C17.1972 24.2441 17.4123 23.7759 17.7204 23.3705C18.0286 22.9651 18.4222 22.6325 18.8735 22.3964ZM21.5293 23.7079C21.1509 23.7079 20.7741 23.6945 20.3974 23.7079C19.5816 23.7449 18.9408 24.2359 18.7726 24.9757C18.7103 25.2447 18.7507 25.5339 18.7154 25.8164C18.68 26.0989 18.8012 26.2435 19.0518 26.3528C19.7642 26.6817 20.5359 26.8634 21.3203 26.8868C22.1048 26.9102 22.8859 26.7749 23.6167 26.489C24.2895 26.2351 24.2895 26.23 24.276 25.507C24.2659 24.4393 23.6032 23.7466 22.5352 23.7113C22.2021 23.7079 21.8657 23.7079 21.5293 23.7079ZM21.4604 22.0265C21.6599 22.0317 21.8584 21.9973 22.0446 21.9254C22.2308 21.8536 22.4009 21.7456 22.5452 21.6078C22.6895 21.47 22.8051 21.305 22.8853 21.1223C22.9656 20.9397 23.0089 20.743 23.0128 20.5435C23.0165 20.1398 22.8605 19.7511 22.5789 19.4617C22.2974 19.1723 21.9129 19.0058 21.5092 18.9983C21.1128 18.9955 20.7312 19.1482 20.4463 19.4236C20.1614 19.699 19.9958 20.0751 19.9853 20.4712C19.9772 20.6706 20.0091 20.8695 20.0791 21.0564C20.1491 21.2432 20.2559 21.4142 20.393 21.5591C20.5302 21.7041 20.695 21.8201 20.8777 21.9004C21.0605 21.9806 21.2574 22.0235 21.457 22.0265H21.4604Z" fill="#00ADEF"/>
<path d="M21.4757 31.925C19.306 31.925 17.1368 31.925 14.9681 31.925C14.403 31.925 14.0599 31.6509 14.0128 31.1919C13.9846 30.975 14.0434 30.7558 14.1764 30.5822C14.3094 30.4086 14.5058 30.2947 14.7226 30.2654C14.8342 30.2524 14.9467 30.2479 15.059 30.252H27.948C28.5821 30.252 28.937 30.5092 28.9875 30.9935C29.0447 31.5332 28.6932 31.9216 28.1112 31.9283C27.2012 31.9401 26.2913 31.9283 25.3813 31.9283L21.4757 31.925Z" fill="#00ADEF"/>
<path d="M21.4991 35.2828C19.3445 35.2828 17.1882 35.2929 15.0335 35.271C14.746 35.2727 14.4661 35.1786 14.238 35.0037C13.7704 34.5884 14.0042 33.8166 14.6198 33.6451C14.7552 33.6125 14.8943 33.5983 15.0335 33.6031H27.9646C28.587 33.6031 28.9452 33.8721 28.9873 34.3614C29.0327 34.8994 28.6795 35.2761 28.0908 35.2794C26.7452 35.2878 25.3996 35.2794 24.054 35.2794L21.4991 35.2828Z" fill="#00ADEF"/>
<path d="M19.5277 38.6405C18.0038 38.6405 16.48 38.6405 14.9544 38.6405C14.4498 38.6405 14.1134 38.4102 14.0276 38.0201C13.9945 37.8943 13.9911 37.7625 14.0176 37.6351C14.0441 37.5078 14.0999 37.3883 14.1804 37.2861C14.2609 37.1839 14.3641 37.1018 14.4818 37.0462C14.5995 36.9907 14.7284 36.9631 14.8585 36.9659C15.348 36.9474 15.8374 36.9659 16.3269 36.9659H23.9631C24.1029 36.9594 24.2429 36.9639 24.3819 36.9793C24.5846 37.0071 24.7702 37.1078 24.904 37.2626C25.0377 37.4173 25.1105 37.6155 25.1086 37.82C25.1086 38.0328 25.0251 38.2371 24.876 38.389C24.7269 38.5409 24.5241 38.6282 24.3113 38.6321C23.7663 38.654 23.2214 38.6422 22.6747 38.6422L19.5277 38.6405Z" fill="#00ADEF"/>
<path d="M28.9907 37.7914C28.9945 37.9028 28.9753 38.0138 28.9344 38.1175C28.8934 38.2212 28.8316 38.3154 28.7528 38.3942C28.6739 38.473 28.5797 38.5348 28.476 38.5758C28.3722 38.6167 28.2612 38.6359 28.1497 38.6321C27.9322 38.6296 27.7241 38.5429 27.5691 38.3902C27.4142 38.2375 27.3245 38.0307 27.3188 37.8133C27.3201 37.5894 27.4087 37.3749 27.5658 37.2154C27.7228 37.0559 27.936 36.9639 28.1598 36.9591C28.3797 36.9617 28.5898 37.0503 28.7451 37.2059C28.9004 37.3615 28.9886 37.5716 28.9907 37.7914Z" fill="#00ADEF"/>
<path d="M5.63625 4.28259C5.63634 4.50154 5.55097 4.71188 5.39831 4.86888C5.24565 5.02589 5.03774 5.11716 4.8188 5.12329C4.594 5.12028 4.37917 5.03001 4.21972 4.87156C4.06027 4.7131 3.9687 4.49889 3.96436 4.27418C3.96674 4.16275 3.99126 4.0529 4.03649 3.95103C4.08173 3.84916 4.14677 3.7573 4.22785 3.68079C4.30893 3.60428 4.40441 3.54465 4.50875 3.50536C4.61309 3.46608 4.7242 3.44793 4.83562 3.45197C4.94282 3.45372 5.04862 3.47662 5.14694 3.51935C5.24527 3.56208 5.33418 3.62381 5.40857 3.70099C5.48296 3.77817 5.54137 3.86928 5.58044 3.96909C5.61951 4.06889 5.63848 4.17543 5.63625 4.28259Z" fill="#00ADEF"/>
<path d="M13.2255 3.44353C13.337 3.44394 13.4472 3.46724 13.5493 3.51197C13.6514 3.5567 13.7432 3.62192 13.8191 3.70357C13.8949 3.78523 13.9532 3.88159 13.9903 3.98668C14.0273 4.09176 14.0424 4.20334 14.0346 4.3145C14.0242 4.5304 13.931 4.73401 13.7744 4.88305C13.6178 5.03209 13.4098 5.1151 13.1936 5.11485C12.9758 5.10393 12.7702 5.01131 12.6177 4.85547C12.4652 4.69963 12.3772 4.49204 12.3711 4.27415C12.3724 4.16345 12.3956 4.05411 12.4393 3.95239C12.483 3.85068 12.5463 3.75859 12.6257 3.68141C12.7051 3.60423 12.799 3.54349 12.9019 3.50267C13.0048 3.46185 13.1148 3.44175 13.2255 3.44353Z" fill="#00ADEF"/>
<path d="M9.01548 3.44354C9.12688 3.44245 9.23732 3.46422 9.33997 3.50752C9.44261 3.55082 9.53527 3.61471 9.61221 3.69526C9.68916 3.7758 9.74874 3.87127 9.78729 3.97576C9.82583 4.08026 9.84251 4.19155 9.83629 4.30274C9.82887 4.52072 9.737 4.72728 9.58008 4.87882C9.42316 5.03035 9.21347 5.11499 8.99529 5.11486C8.77622 5.10868 8.56763 5.01971 8.41157 4.86589C8.25551 4.71206 8.16357 4.50482 8.1543 4.28593C8.15404 4.17367 8.17628 4.06249 8.2197 3.95895C8.26312 3.85542 8.32684 3.76163 8.40711 3.68312C8.48738 3.6046 8.58256 3.54295 8.68705 3.5018C8.79154 3.46066 8.90321 3.44085 9.01548 3.44354Z" fill="#00ADEF"/>
</g>
<defs>
<clipPath id="clip0_138_199">
<rect width="43" height="42" fill="white"/>
</clipPath>
</defs>
</svg>
