<svg width="43" height="43" viewBox="0 0 43 43" fill="none" xmlns="http://www.w3.org/2000/svg">
<g clip-path="url(#clip0_138_210)">
<path d="M40.3916 16.5096V31.4143C40.3916 32.4573 39.9224 32.9284 38.8865 32.9284C37.3629 32.9284 35.8382 32.9284 34.3124 32.9284C33.3252 32.9284 32.8325 32.4456 32.8325 31.4715V1.45515C32.8325 0.504675 33.3236 0 34.2737 0H38.9739C39.8921 0 40.3899 0.504675 40.3916 1.43496V16.5096ZM35.3819 2.54693V30.3764H37.8506V2.54356L35.3819 2.54693Z" fill="#00ADEF"/>
<path d="M22.7561 19.0717V6.72899C22.7561 5.68263 23.2236 5.21497 24.2561 5.21497C25.81 5.21497 27.3627 5.21497 28.9143 5.21497C29.8073 5.21497 30.3134 5.71964 30.3134 6.62469C30.3134 14.9238 30.3134 23.2229 30.3134 31.522C30.3134 32.4237 29.809 32.9351 28.9177 32.9368C27.3235 32.9368 25.7287 32.9368 24.1334 32.9368C23.2673 32.9368 22.7561 32.417 22.7561 31.5455C22.7538 27.387 22.7538 23.2291 22.7561 19.0717ZM27.7657 30.3898V7.76526H25.2987V30.3898H27.7657Z" fill="#00ADEF"/>
<path d="M12.0106 37.9701C15.5376 37.9701 19.0635 37.9701 22.5882 37.9701C22.7018 37.9843 22.8169 37.9585 22.9135 37.8971C23.0102 37.8357 23.0825 37.7426 23.1179 37.6336C23.8074 36.2307 24.9509 35.4551 26.5199 35.4467C28.0889 35.4383 29.2644 36.2155 29.9556 37.6336C29.9943 37.7406 30.069 37.8307 30.1669 37.8887C30.2647 37.9467 30.3796 37.9689 30.492 37.9516C34.2006 37.9449 37.9087 37.9449 41.6162 37.9516C42.6252 37.9516 43.2726 38.8398 42.8875 39.7045C42.6538 40.2294 42.2233 40.4733 41.6481 40.4733H35.9877C34.1547 40.4733 32.3216 40.4733 30.4886 40.4733C30.3749 40.4584 30.2596 40.4839 30.1628 40.5454C30.066 40.6069 29.9938 40.7004 29.9589 40.8097C29.2711 42.2144 28.1242 42.9866 26.5569 42.9967C24.9896 43.0068 23.8377 42.2396 23.1381 40.8383C23.0946 40.7194 23.0116 40.619 22.9029 40.5541C22.7942 40.4891 22.6664 40.4636 22.5411 40.4817C15.5174 40.4918 8.49311 40.4957 1.46826 40.4935C0.867911 40.4935 0.393684 40.3067 0.122937 39.7482C0.0350569 39.5605 -0.00461794 39.3537 0.0075048 39.1468C0.0196275 38.9398 0.0831649 38.7391 0.192364 38.5629C0.301563 38.3867 0.452975 38.2405 0.63289 38.1376C0.812805 38.0346 1.01554 37.9782 1.22274 37.9735C1.79619 37.9499 2.37131 37.9735 2.94476 37.9735L12.0106 37.9701ZM26.5233 40.4935C26.7722 40.4961 27.0163 40.4248 27.2247 40.2887C27.4331 40.1525 27.5964 39.9575 27.694 39.7284C27.7915 39.4993 27.8189 39.2464 27.7727 39.0017C27.7265 38.757 27.6088 38.5315 27.4345 38.3538C27.2601 38.1761 27.0369 38.0541 26.7933 38.0033C26.5496 37.9526 26.2963 37.9752 26.0655 38.0685C25.8347 38.1618 25.6367 38.3215 25.4967 38.5274C25.3567 38.7332 25.2809 38.9761 25.2789 39.2251C25.281 39.5563 25.4122 39.8736 25.6446 40.1096C25.877 40.3455 26.1922 40.4814 26.5233 40.4884V40.4935Z" fill="#00ADEF"/>
<path d="M20.2385 21.5849V31.4076C20.2385 32.4691 19.771 32.9317 18.6998 32.9317C17.1611 32.9317 15.6224 32.9317 14.0837 32.9317C13.189 32.9317 12.6812 32.427 12.6812 31.5253C12.6812 24.9085 12.6812 18.2916 12.6812 11.6748C12.6812 10.7546 13.1856 10.2583 14.1139 10.2567H18.8125C19.7374 10.2567 20.2368 10.7613 20.2385 11.6832C20.2408 14.9815 20.2408 18.2821 20.2385 21.5849ZM17.6908 30.3999V12.8036H15.2356V30.3999H17.6908Z" fill="#00ADEF"/>
<path d="M2.60303 24.1117V16.7653C2.60303 15.7778 3.08735 15.2917 4.06439 15.29C5.61712 15.29 7.16929 15.29 8.7209 15.29C9.66936 15.29 10.1621 15.7947 10.1621 16.7434V31.4766C10.1621 32.4338 9.66935 32.9301 8.72258 32.9317C7.15303 32.9317 5.58629 32.9317 4.02235 32.9317C3.10248 32.9317 2.60471 32.4271 2.60471 31.4985C2.60359 29.0356 2.60303 26.5734 2.60303 24.1117ZM7.61437 30.3899V17.8453H5.14401V30.3899H7.61437Z" fill="#00ADEF"/>
</g>
<defs>
<clipPath id="clip0_138_210">
<rect width="43" height="43" fill="white"/>
</clipPath>
</defs>
</svg>
