<svg width="47" height="47" viewBox="0 0 47 47" fill="none" xmlns="http://www.w3.org/2000/svg">
<g clip-path="url(#clip0_138_230)">
<path d="M20.4834 39.1048C19.9132 39.1048 19.3889 39.1599 18.883 39.0919C18.1012 38.9871 17.4555 38.5753 16.9018 38.0202C14.2738 35.3915 11.6445 32.7635 9.01394 30.136C8.09418 29.2169 7.68396 28.1434 7.88631 26.8492C7.90102 26.7592 7.89919 26.6654 7.91022 26.5165L5.70279 26.1654C4.52549 25.9816 3.34635 25.8088 2.16905 25.6139C0.318481 25.3088 -0.590247 23.3419 0.423335 21.7537C1.97958 19.3382 3.57629 16.9485 5.17852 14.5643C5.47358 14.1136 5.87056 13.7385 6.33741 13.4693C6.80426 13.2001 7.3279 13.0444 7.86607 13.0147C10.0294 12.8309 12.1945 12.6636 14.3615 12.5073C14.502 12.5013 14.6396 12.4647 14.7645 12.3999C14.8894 12.3351 14.9986 12.2438 15.0844 12.1323C17.7112 9.0441 20.6968 6.36763 24.2085 4.32167C27.9317 2.15439 31.975 0.933802 36.239 0.367625C38.7067 0.0111952 41.2054 -0.081853 43.6928 0.0900519C45.4109 0.226081 46.8476 1.6213 46.9377 3.3474C47.4896 13.9412 44.4028 23.1489 36.4984 30.5C36.0955 30.8676 35.7258 31.307 35.2677 31.6029C34.5926 32.0312 34.4914 32.6434 34.4454 33.3511C34.3185 35.2886 34.1585 37.2224 33.9984 39.1581C33.9645 39.7029 33.8023 40.2321 33.5252 40.7026C33.2481 41.1731 32.8638 41.5716 32.4036 41.8658C30.0398 43.4448 27.6723 45.022 25.2864 46.5662C23.6842 47.6048 21.7049 46.7059 21.3995 44.829C21.1125 43.0496 20.8476 41.2665 20.568 39.4853C20.5496 39.3621 20.5147 39.2463 20.4834 39.1048ZM40.8599 2.80513V2.73343C39.8684 2.80145 38.875 2.84924 37.8854 2.94483C34.0941 3.31248 30.4261 4.1838 27.0321 5.94299C20.8219 9.16542 16.2488 14.0312 12.9781 20.1783C12.8144 20.4834 12.9634 20.6121 13.14 20.7886C17.5034 25.1452 21.8631 29.5049 26.2191 33.8676C26.4692 34.1195 26.6458 34.136 26.9549 33.9742C31.9985 31.3416 36.3035 27.4908 39.4784 22.772C41.7539 19.4338 43.0434 15.7003 43.7351 11.7426C44.1942 9.13448 44.3577 6.48295 44.2225 3.83821C44.1858 3.11763 43.9153 2.84005 43.1998 2.81064C42.4198 2.77939 41.6398 2.80513 40.8599 2.80513ZM23.778 35.4375L11.6647 23.3309C11.6424 23.3476 11.6258 23.3707 11.6169 23.397C11.2766 24.6948 10.916 25.9889 10.6254 27.2978C10.6139 27.4454 10.6335 27.5938 10.683 27.7335C10.7324 27.8731 10.8105 28.0008 10.9123 28.1084C13.5576 30.7849 16.2182 33.4454 18.8941 36.09C19.078 36.2739 19.4018 36.4393 19.617 36.397C21.0022 36.1121 22.3744 35.7684 23.778 35.4375ZM31.6181 34.4173C29.0247 36.1616 26.1858 37.5103 23.1949 38.4191C23.4855 40.3014 23.7725 42.1525 24.0595 44.0073C24.1017 44.0046 24.1433 43.9953 24.1827 43.9798C26.4141 42.5092 28.6509 41.0386 30.8712 39.5496C31.0678 39.4058 31.1999 39.1906 31.2391 38.9503C31.379 37.4834 31.4875 36.0073 31.6181 34.4173ZM2.94349 22.9467C4.77014 23.2316 6.52322 23.4981 8.27813 23.7831C8.61476 23.8382 8.65891 23.6397 8.72881 23.4154C9.44356 21.1113 10.4375 18.9031 11.6886 16.8401C11.9609 16.386 12.2405 15.9375 12.5661 15.4191C11.0944 15.5312 9.69825 15.6434 8.30204 15.7371C8.08877 15.7478 7.88176 15.8127 7.70055 15.9256C7.51934 16.0385 7.36992 16.1957 7.26639 16.3823C6.30983 17.8529 5.33304 19.3235 4.36361 20.7831L2.94349 22.9467Z" fill="white"/>
<path d="M11.4881 37.0423C11.3188 37.3548 11.2103 37.7298 10.9693 37.9724C8.11559 40.8511 5.25022 43.7181 2.37319 46.5735C2.246 46.7076 2.09282 46.8143 1.92299 46.8873C1.75315 46.9602 1.57023 46.9979 1.38537 46.9979C1.2005 46.9979 1.01758 46.9602 0.847745 46.8873C0.677912 46.8143 0.524729 46.7076 0.397537 46.5735C0.269938 46.4453 0.169233 46.293 0.101325 46.1254C0.0334176 45.9578 -0.000326018 45.7783 0.00207259 45.5975C0.00447119 45.4167 0.0429638 45.2382 0.115294 45.0725C0.187624 44.9067 0.292336 44.7571 0.423291 44.6323C3.29541 41.7488 6.17366 38.8725 9.05805 36.0037C9.24964 35.8008 9.50067 35.664 9.77503 35.6128C10.0494 35.5616 10.3329 35.5987 10.5849 35.7187C11.0926 35.9283 11.4053 36.4338 11.4881 37.0423Z" fill="white"/>
<path d="M15.6142 41.1415C15.4468 41.4558 15.342 41.829 15.1028 42.0735C13.6312 43.5808 12.1424 45.0723 10.6364 46.5478C10.5099 46.6819 10.3572 46.7888 10.1878 46.8618C10.0184 46.9349 9.83586 46.9726 9.65137 46.9726C9.46687 46.9726 9.28432 46.9349 9.11493 46.8618C8.94553 46.7888 8.79287 46.6819 8.6663 46.5478C8.12732 45.9871 8.14203 45.1691 8.72884 44.579C10.1907 43.1084 11.6623 41.6378 13.1437 40.1672C13.3353 39.9555 13.5888 39.8095 13.8682 39.7501C14.1477 39.6907 14.4387 39.7209 14.7 39.8364C15.204 40.0386 15.5259 40.5422 15.6142 41.1415Z" fill="white"/>
<path d="M7.37657 32.9044C7.19261 33.2279 7.07856 33.6084 6.82471 33.8621C5.37516 35.3492 3.89985 36.8033 2.42271 38.2739C1.81751 38.8731 0.973162 38.8731 0.419464 38.3033C-0.134235 37.7334 -0.106642 36.9228 0.480168 36.3327C1.94321 34.8621 3.41483 33.3915 4.89504 31.9209C5.08522 31.7112 5.33683 31.5668 5.61397 31.5084C5.89111 31.4499 6.17964 31.4805 6.43841 31.5956C6.95899 31.8015 7.27355 32.2904 7.37657 32.9044Z" fill="white"/>
<path d="M25.3359 14.8051C25.3345 13.4431 25.7375 12.1113 26.4938 10.9783C27.2502 9.84533 28.326 8.96206 29.585 8.44035C30.844 7.91864 32.2295 7.78194 33.5663 8.04756C34.9031 8.31318 36.1309 8.96918 37.0944 9.9325C38.0579 10.8958 38.7137 12.1232 38.9788 13.4591C39.2439 14.7951 39.1064 16.1796 38.5836 17.4375C38.0609 18.6953 37.1764 19.7698 36.0422 20.5251C34.908 21.2803 33.575 21.6823 32.2121 21.6801C30.3882 21.6786 28.6396 20.9537 27.3502 19.6646C26.0609 18.3755 25.3364 16.6277 25.3359 14.8051ZM28.0952 14.8051C28.0952 15.8991 28.5301 16.9483 29.3043 17.7219C30.0784 18.4955 31.1284 18.9301 32.2231 18.9301C33.3179 18.9301 34.3679 18.4955 35.142 17.7219C35.9161 16.9483 36.3511 15.8991 36.3511 14.8051C36.3511 14.2634 36.2443 13.727 36.0368 13.2265C35.8294 12.7261 35.5253 12.2713 35.142 11.8883C34.7587 11.5052 34.3036 11.2014 33.8028 10.9941C33.302 10.7868 32.7652 10.6801 32.2231 10.6801C31.6811 10.6801 31.1443 10.7868 30.6435 10.9941C30.1426 11.2014 29.6876 11.5052 29.3043 11.8883C28.921 12.2713 28.6169 12.7261 28.4095 13.2265C28.202 13.727 28.0952 14.2634 28.0952 14.8051Z" fill="white"/>
</g>
<defs>
<clipPath id="clip0_138_230">
<rect width="47" height="47" fill="white"/>
</clipPath>
</defs>
</svg>
