<svg width="46" height="41" viewBox="0 0 46 41" fill="none" xmlns="http://www.w3.org/2000/svg">
<g clip-path="url(#clip0_138_222)">
<path d="M32.9685 12.7211C34.4348 11.2616 35.8022 9.89138 37.184 8.53364C38.3571 7.38107 39.7533 7.03851 41.3024 7.60944C41.8235 7.82992 42.3006 8.14111 42.7111 8.52829C43.3714 9.10635 43.9706 9.74865 44.5895 10.3785C46.4786 12.3214 46.4714 15.119 44.5625 17.0459C43.2095 18.4125 41.8367 19.7596 40.4675 21.1102C40.0087 21.5634 39.4636 21.599 39.0822 21.219C38.7007 20.839 38.7223 20.3269 39.1991 19.8488C40.5611 18.4928 41.9357 17.1476 43.2923 15.7827C44.2728 14.7978 44.4689 13.4472 43.832 12.3089C43.7978 12.2465 43.7493 12.1894 43.6521 12.0627C43.2077 13.6007 41.9393 14.4303 40.9371 15.4669C39.6291 16.8139 38.2725 18.1146 36.9447 19.442C36.5958 19.8149 36.1343 20.0653 35.6295 20.1557C35.4739 20.1928 35.3322 20.2733 35.2211 20.3876C34.5356 21.0531 33.8573 21.7221 33.1898 22.4037C33.0672 22.5244 32.9897 22.683 32.9703 22.8533C32.9595 26.5055 32.9703 30.1559 32.9703 33.8081C32.978 33.8589 32.9901 33.909 33.0063 33.9579H33.4651C35.2319 33.9579 36.9981 33.9579 38.7637 33.9579C39.5895 33.9579 39.9044 34.2826 39.8864 35.098C39.8216 38.1668 37.0671 40.9286 33.9652 40.9857C31.8566 41.0232 29.7443 40.9982 27.6339 40.9946C27.0365 40.9946 26.6623 40.6485 26.6551 40.124C26.6479 39.5994 27.0294 39.2176 27.6465 39.2158C29.6976 39.2158 31.7486 39.2283 33.7997 39.2051C34.7591 39.1827 35.6849 38.8503 36.4364 38.2584C37.1878 37.6665 37.7239 36.8475 37.9631 35.9258C37.9726 35.8728 37.9786 35.8191 37.981 35.7653H12.3371C12.1235 37.0658 11.5087 38.2687 10.5775 39.2087H11.1551C13.879 39.2087 16.603 39.2087 19.327 39.2087C19.5356 39.2021 19.7441 39.2255 19.9459 39.2783C20.1322 39.3382 20.2925 39.4591 20.4004 39.6212C20.5082 39.7833 20.5574 39.9769 20.5397 40.1704C20.5215 40.3718 20.4349 40.5611 20.294 40.7073C20.1531 40.8535 19.9663 40.9479 19.7642 40.975C19.6302 40.9867 19.4956 40.9902 19.3612 40.9857C15.0359 40.9857 10.7101 40.9857 6.3836 40.9857C3.07848 40.9857 0.520026 38.7859 0.04324 35.5405C0.00928057 35.2623 -0.00514772 34.9821 5.93071e-05 34.7019C5.93071e-05 23.5212 5.93071e-05 12.3434 5.93071e-05 1.16862C5.93071e-05 0.283681 0.286131 0 1.18393 0H31.8098C32.677 0 32.9685 0.290818 32.9685 1.15078V12.7211ZM1.79925 1.80735V34.5645C1.79925 34.7269 1.79925 34.891 1.79925 35.0534C1.86419 36.1557 2.34387 37.1937 3.14344 37.9621C3.94301 38.7306 5.00426 39.1735 6.11732 39.2034C8.44368 39.2372 10.4516 37.4192 10.6009 35.1462C10.6639 34.1809 10.905 33.9526 11.8693 33.9526H31.1459V24.4109C30.876 24.6821 30.6853 24.9069 30.464 25.096C29.6058 25.8329 28.7782 26.6125 27.8642 27.2745C26.2827 28.4199 24.3935 28.9105 22.5781 29.5475C22.1769 29.6884 21.8099 29.6724 21.4986 29.3566C21.1874 29.0408 21.1982 28.6768 21.3457 28.2861C21.6282 27.5367 21.8855 26.7802 22.1643 26.0273C22.8619 24.0922 23.9953 22.3403 25.4784 20.905C27.1247 19.2993 28.735 17.6668 30.3777 16.0628C30.629 15.8131 30.827 15.5156 30.9596 15.1881C31.0922 14.8607 31.1568 14.5101 31.1495 14.1573C31.1837 10.1929 31.1657 6.23029 31.1657 2.26588V1.80735H1.79925ZM41.9573 10.9512C41.9423 10.5912 41.8214 10.2434 41.6094 9.95071C41.3974 9.65806 41.1037 9.43338 40.7644 9.3044C40.396 9.12742 39.9799 9.0728 39.5778 9.14864C39.1756 9.22448 38.8088 9.42673 38.5316 9.72546C36.6299 11.5935 34.7533 13.4722 32.8443 15.3491C32.6159 15.5757 32.5979 15.7452 32.8443 15.9772C33.594 16.7015 34.3341 17.4354 35.0646 18.1788C35.302 18.4197 35.4766 18.3929 35.6997 18.1681C37.5852 16.2852 39.475 14.4065 41.3689 12.5319C41.754 12.1483 41.9573 11.6809 41.9573 10.9512ZM31.6101 17.3742C31.5543 17.4241 31.4842 17.4794 31.4302 17.5419C29.7785 19.1779 28.1161 20.8051 26.4842 22.4608C26.006 22.9518 25.5725 23.4838 25.1888 24.0505C24.5201 25.0552 23.9974 26.1483 23.6361 27.2976C25.5522 26.6357 27.2507 25.7686 28.645 24.3877L33.4399 19.6258C33.5226 19.5437 33.5982 19.4473 33.6576 19.3938L31.6101 17.3742Z" fill="white"/>
<path d="M24.4568 40.1169C24.4575 40.2319 24.4351 40.346 24.3907 40.4523C24.3464 40.5586 24.2811 40.6551 24.1986 40.736C24.1161 40.817 24.0182 40.8808 23.9105 40.9237C23.8028 40.9665 23.6876 40.9876 23.5716 40.9857C23.4464 40.9962 23.3204 40.9805 23.2017 40.9397C23.083 40.8989 22.9742 40.8339 22.8824 40.7489C22.7906 40.6639 22.7177 40.5607 22.6685 40.4461C22.6193 40.3315 22.5949 40.2079 22.5968 40.0833C22.5987 39.9588 22.6269 39.836 22.6795 39.7229C22.7322 39.6098 22.8081 39.5089 22.9025 39.4266C22.9969 39.3444 23.1076 39.2827 23.2275 39.2455C23.3474 39.2082 23.4738 39.1963 23.5986 39.2105C23.8324 39.2211 24.0529 39.3218 24.2131 39.491C24.3734 39.6602 24.4608 39.8847 24.4568 40.1169Z" fill="white"/>
<path d="M16.0344 14.7371H7.37672C7.19641 14.7432 7.01591 14.7349 6.83696 14.7122C6.64512 14.6767 6.47055 14.5792 6.34061 14.4349C6.21066 14.2905 6.13269 14.1075 6.1189 13.9144C6.10512 13.7214 6.1563 13.5293 6.26443 13.3682C6.37256 13.2072 6.53152 13.0862 6.71641 13.0243C6.91936 12.9746 7.12817 12.9524 7.33713 12.9583C13.1617 12.9583 18.9845 12.9583 24.8055 12.9583C24.9866 12.9536 25.1677 12.9691 25.3453 13.0047C25.5483 13.0505 25.7283 13.1662 25.8534 13.3313C25.9785 13.4963 26.0405 13.7 26.0285 13.9061C26.0164 14.1122 25.931 14.3074 25.7874 14.4569C25.6439 14.6065 25.4515 14.7007 25.2445 14.7229C25.0807 14.738 24.916 14.7434 24.7515 14.7389L16.0344 14.7371Z" fill="white"/>
<path d="M16.0671 27.7758C16.3927 27.7758 16.6896 27.7615 16.9829 27.7758C17.2095 27.7818 17.4255 27.8725 17.5876 28.0296C17.7497 28.1867 17.846 28.3988 17.8573 28.6233C17.8686 28.8493 17.7899 29.0706 17.6381 29.2395C17.4863 29.4084 17.2735 29.5114 17.0459 29.5261C16.2985 29.5662 15.5496 29.5662 14.8023 29.5261C14.1941 29.4922 13.8739 28.9337 14.0322 28.3218C14.1332 27.9863 14.2096 27.6441 14.2607 27.2977C14.3129 26.8249 14.0502 26.6625 13.6328 26.9069C13.4132 27.034 13.2241 27.2069 13.0786 27.4136C12.7692 27.8829 12.4957 28.3771 12.2222 28.8677C12.0189 29.2353 11.7832 29.5618 11.3226 29.5582C11.1841 29.5533 11.0486 29.5167 10.9268 29.4513C10.8049 29.3859 10.6999 29.2935 10.6199 29.1813C10.54 29.069 10.4873 28.94 10.4659 28.8042C10.4446 28.6684 10.4551 28.5296 10.4968 28.3985C10.6659 27.7847 10.8728 27.1799 10.9988 26.5572C11.1319 25.9042 10.8386 25.6455 10.1963 25.865C9.83314 25.9968 9.50164 26.2021 9.22295 26.468C8.51227 27.1282 8.06607 27.9721 7.70983 28.8606C7.54611 29.2692 7.27803 29.5421 6.81024 29.5528C6.66669 29.5557 6.52462 29.5237 6.39641 29.4597C6.26821 29.3956 6.15776 29.3014 6.07472 29.1852C5.99167 29.0691 5.93855 28.9346 5.91998 28.7934C5.90142 28.6522 5.91798 28.5087 5.96821 28.3753C6.48998 26.9979 7.21326 25.7401 8.39533 24.807C9.115 24.2325 9.94623 23.9238 10.8962 24.0451C11.287 24.0789 11.6601 24.2221 11.972 24.458C12.2838 24.694 12.5216 25.013 12.6576 25.3779C13.5356 24.9711 14.3902 24.8427 15.2071 25.3886C16.0509 25.9381 16.0923 26.8266 16.0671 27.7758Z" fill="white"/>
<path d="M13.6527 20.8604H7.3249C7.17545 20.8661 7.02579 20.8619 6.8769 20.8479C6.68312 20.8196 6.50394 20.7294 6.36657 20.5909C6.22921 20.4525 6.14118 20.2733 6.11584 20.0807C6.09215 19.8878 6.13394 19.6926 6.23462 19.5259C6.3353 19.3592 6.48913 19.2305 6.67179 19.1601C6.81099 19.1082 6.95848 19.0816 7.1072 19.0816C11.5044 19.0816 15.9023 19.0816 20.3007 19.0816C20.8674 19.0816 21.2381 19.3796 21.2974 19.8452C21.3712 20.4304 20.9826 20.8551 20.3385 20.8604C19.079 20.8604 17.8196 20.8604 16.5602 20.8604H13.6527Z" fill="white"/>
<path d="M18.6722 8.62818C16.6067 8.62818 14.5418 8.62818 12.4776 8.62818C11.8155 8.62818 11.4142 8.29097 11.398 7.75215C11.3871 7.5346 11.4603 7.32112 11.6028 7.15531C11.7452 6.98951 11.9462 6.8839 12.1645 6.86007C12.3284 6.84486 12.493 6.8395 12.6575 6.84402H24.829C25.6027 6.84402 26.0291 7.16338 26.0255 7.7361C26.0219 8.30881 25.5937 8.62818 24.8236 8.62818H18.6722Z" fill="white"/>
</g>
<defs>
<clipPath id="clip0_138_222">
<rect width="46" height="41" fill="white"/>
</clipPath>
</defs>
</svg>
