<svg width="24" height="24" viewBox="0 0 24 24" fill="none" xmlns="http://www.w3.org/2000/svg">
<g clip-path="url(#clip0_201_46)">
<path d="M6.62878 20.1891L6.99208 20.406C8.51514 21.3038 10.2523 21.7783 12.0224 21.7802C14.2257 21.7862 16.3685 21.0628 18.1135 19.7239C19.8585 18.3849 21.1067 16.5064 21.6616 14.384C22.2165 12.2616 22.0466 10.0157 21.1787 7.99995C20.3107 5.98417 18.794 4.31288 16.8672 3.24911C14.9405 2.18534 12.713 1.7895 10.5354 2.12388C8.35787 2.45825 6.35382 3.50386 4.8387 5.09615C3.32358 6.68844 2.3834 8.737 2.16614 10.9194C1.94887 13.1018 2.46686 15.2942 3.63857 17.1515L3.87331 17.5243L2.86726 21.1738L6.62878 20.1891ZM0 23.9944L1.67676 17.8358C0.361593 15.567 -0.164772 12.9297 0.179289 10.3328C0.52335 7.73594 1.71861 5.32461 3.57972 3.47275C5.44083 1.6209 7.8638 0.431993 10.4729 0.0904065C13.082 -0.25118 15.7314 0.273638 18.0103 1.58347C20.2892 2.89331 22.0703 4.91498 23.0773 7.33497C24.0843 9.75497 24.261 12.4381 23.58 14.9682C22.899 17.4983 21.3983 19.7341 19.3106 21.3288C17.223 22.9236 14.6651 23.7882 12.0335 23.7885C10.0395 23.7913 8.07683 23.2938 6.32697 22.3421L0 23.9944Z" fill="white"/>
<path d="M0.51418 11.8944C0.512639 13.9091 1.04266 15.8889 2.05121 17.6357L0.413574 23.5828L6.56169 21.9862C8.24482 22.8949 10.1299 23.3692 12.0447 23.3659C14.327 23.367 16.5584 22.6942 18.4565 21.4326C20.3546 20.1711 21.834 18.3775 22.7077 16.2787C23.5814 14.18 23.81 11.8705 23.3646 9.64242C22.9192 7.41434 21.8198 5.36784 20.2055 3.76185C18.5913 2.15587 16.5347 1.06258 14.2961 0.620326C12.0574 0.178073 9.73722 0.40673 7.62914 1.27737C5.52107 2.148 3.71982 3.62148 2.45331 5.51137C1.18681 7.40126 0.511968 9.62262 0.51418 11.8944Z" fill="url(#paint0_linear_201_46)"/>
<path d="M0.100606 11.8943C0.0932531 13.9782 0.636831 16.0273 1.67676 17.8359L0 24L6.33256 22.3311C8.08567 23.2797 10.0493 23.7769 12.0447 23.7775C14.4104 23.7797 16.7236 23.0832 18.6915 21.7763C20.6594 20.4693 22.1934 18.6106 23.0995 16.4354C24.0056 14.2602 24.243 11.8663 23.7816 9.55678C23.3202 7.24724 22.1808 5.12588 20.5076 3.46121C18.8344 1.79654 16.7026 0.663396 14.3821 0.205222C12.0616 -0.252953 9.65666 -0.0155642 7.47176 0.887341C5.28686 1.79025 3.4202 3.31807 2.10806 5.27743C0.795916 7.23679 0.0972885 9.53958 0.100606 11.8943ZM3.87331 17.5299L3.63857 17.1516C2.46879 15.2947 1.95216 13.1035 2.16988 10.9224C2.38761 8.74137 3.32734 6.69418 4.84136 5.10267C6.35538 3.51116 8.35782 2.46558 10.5339 2.1303C12.71 1.79502 14.9363 2.18904 16.8629 3.25044C18.7895 4.31184 20.3071 5.98041 21.1771 7.99387C22.0471 10.0073 22.2202 12.2515 21.6693 14.3735C21.1183 16.4956 19.8744 18.3753 18.1333 19.717C16.3921 21.0587 14.2523 21.7865 12.0503 21.7859C10.2798 21.782 8.54264 21.3056 7.02003 20.4062L6.65673 20.1948L2.86726 21.1739L3.87331 17.5299Z" fill="url(#paint1_linear_201_46)"/>
<path fill-rule="evenodd" clip-rule="evenodd" d="M9.06553 6.92076C8.84196 6.42562 8.60721 6.4145 8.39483 6.40894H7.82473C7.67442 6.41385 7.52666 6.44891 7.39029 6.512C7.25392 6.57509 7.13174 6.66492 7.03106 6.77611C6.69342 7.09487 6.42613 7.48009 6.24619 7.90727C6.06625 8.33444 5.9776 8.79421 5.98588 9.25734C6.08085 10.3777 6.50456 11.4456 7.20433 12.3283C7.35523 12.5285 9.26674 15.6273 12.3017 16.8178C14.828 17.8081 15.3422 17.6078 15.8843 17.5633C16.4265 17.5188 17.6505 16.8345 17.8853 16.1336C18.0841 15.6905 18.1444 15.1981 18.0585 14.7205C17.9859 14.5925 17.7847 14.5202 17.4996 14.37C17.2146 14.2198 15.7334 13.5021 15.4596 13.402C15.1857 13.3018 14.9845 13.2573 14.7889 13.5522C14.5932 13.847 14.0176 14.5202 13.8387 14.7205C13.6598 14.9208 13.4922 14.943 13.1959 14.7928C12.317 14.4547 11.5038 13.9672 10.7926 13.3519C10.1345 12.752 9.56946 12.0584 9.11583 11.2935C8.94257 10.9986 9.11583 10.8373 9.24438 10.6871C9.37293 10.5369 9.5462 10.3422 9.69152 10.1642C9.81615 10.0149 9.91787 9.848 9.99333 9.66902C10.0312 9.58699 10.0484 9.49703 10.0436 9.40689C10.0387 9.31675 10.0119 9.22915 9.96539 9.15163C9.89273 9.00143 9.31145 7.53272 9.04876 6.92632" fill="white"/>
</g>
<defs>
<linearGradient id="paint0_linear_201_46" x1="12.0402" y1="23.6305" x2="12.0402" y2="0.464951" gradientUnits="userSpaceOnUse">
<stop stop-color="#20B038"/>
<stop offset="1" stop-color="#60D66A"/>
</linearGradient>
<linearGradient id="paint1_linear_201_46" x1="12.0988" y1="24.1462" x2="12.0988" y2="0.151747" gradientUnits="userSpaceOnUse">
<stop stop-color="#F9F9F9"/>
<stop offset="1" stop-color="white"/>
</linearGradient>
<clipPath id="clip0_201_46">
<rect width="24" height="24" fill="white"/>
</clipPath>
</defs>
</svg>
