<svg width="87" height="87" viewBox="0 0 87 87" fill="none" xmlns="http://www.w3.org/2000/svg">
<path d="M21.75 0C26.0517 0 30.2569 1.27562 33.8336 3.66554C37.4104 6.05546 40.1982 9.45234 41.8444 13.4266C43.4906 17.4009 43.9213 21.7741 43.0821 25.9932C42.2428 30.2123 40.1714 34.0878 37.1296 37.1296C34.0878 40.1714 30.2123 42.2428 25.9932 43.0821C21.7741 43.9213 17.4009 43.4906 13.4266 41.8444C9.45233 40.1982 6.05546 37.4104 3.66554 33.8336C1.27562 30.2569 0 26.0517 0 21.75C0 15.9815 2.29151 10.4493 6.37042 6.37043C10.4493 2.29151 15.9815 0 21.75 0Z" fill="white"/>
<path d="M21.75 43.5226C26.0537 43.5226 30.2606 44.7987 33.8384 47.1894C37.4161 49.5801 40.2038 52.9779 41.8487 56.9527C43.4936 60.9276 43.9216 65.3008 43.0788 69.5189C42.2359 73.737 40.1599 77.6104 37.1136 80.6488C34.0673 83.6872 30.1876 85.7541 25.9655 86.5878C21.7434 87.4215 17.3688 86.9845 13.3953 85.3322C9.42183 83.68 6.02808 80.8866 3.6436 77.3058C1.25912 73.7249 -0.00889111 69.5176 4.69282e-05 65.2161C4.53856e-05 62.3624 0.562789 59.5367 1.65611 56.9005C2.74942 54.2643 4.35187 51.8694 6.37184 49.8525C8.39181 47.8357 10.7897 46.2366 13.4284 45.1466C16.0671 44.0566 18.8949 43.497 21.75 43.5" fill="#C4161D"/>
<path d="M65.2274 1.17321e-05C69.5301 -0.00445629 73.7375 1.26736 77.3172 3.65456C80.8969 6.04176 83.6882 9.43709 85.3379 13.411C86.9876 17.3849 87.4215 21.7588 86.5848 25.9794C85.7481 30.1999 83.6785 34.0775 80.6376 37.1216C77.5967 40.1656 73.7212 42.2394 69.5015 43.0804C65.2818 43.9215 60.9075 43.4921 56.9319 41.8465C52.9563 40.201 49.558 37.4133 47.1671 33.836C44.7762 30.2587 43.5 26.0527 43.5 21.75C43.5 15.9855 45.7884 10.4567 49.8624 6.37842C53.9365 2.30015 59.4629 0.00599776 65.2274 1.17321e-05Z" fill="#C4161D"/>
<path d="M65.2275 43.5226C69.5321 43.5181 73.7412 44.7904 77.3219 47.1784C80.9026 49.5664 83.6939 52.9626 85.3422 56.937C86.9906 60.9115 87.4219 65.2855 86.5815 69.5051C85.7412 73.7247 83.667 77.6002 80.6216 80.6409C77.5761 83.6815 73.6965 85.7506 69.4738 86.5861C65.2511 87.4216 60.8754 86.986 56.9005 85.3344C52.9257 83.6828 49.5307 80.8895 47.1452 77.3081C44.7597 73.7268 43.4911 69.5185 43.5 65.2161C43.5 59.4567 45.7892 53.9331 49.8639 49.8605C53.9385 45.7879 59.465 43.5 65.2275 43.5" fill="white"/>
</svg>
