<svg width="491" height="56" viewBox="0 0 491 56" fill="none" xmlns="http://www.w3.org/2000/svg">
<path d="M423.938 27.0842V0.00703352C420.329 -0.0752108 416.74 0.564533 413.382 1.88868C410.024 3.21284 406.965 5.19469 404.383 7.71784C401.802 10.241 399.751 13.2545 398.351 16.5815C396.95 19.9084 396.229 23.4816 396.229 27.0913C396.229 30.7009 396.95 34.2741 398.351 37.6011C399.751 40.928 401.802 43.9415 404.383 46.4647C406.965 48.9878 410.024 50.9697 413.382 52.2938C416.74 53.618 420.329 54.2577 423.938 54.1755V27.0842Z" fill="#00ADEF"/>
<path d="M396.846 54.1758H423.937C424.019 50.5671 423.38 46.9784 422.056 43.6204C420.731 40.2624 418.75 37.2029 416.226 34.6216C413.703 32.0403 410.69 29.9893 407.363 28.5889C404.036 27.1886 400.463 26.4673 396.853 26.4673C393.243 26.4673 389.67 27.1886 386.343 28.5889C383.016 29.9893 380.003 32.0403 377.48 34.6216C374.956 37.2029 372.975 40.2624 371.65 43.6204C370.326 46.9784 369.687 50.5671 369.769 54.1758H396.846Z" fill="#1D3C85"/>
<path d="M337.192 0.626376C342.55 0.63194 347.785 2.2259 352.237 5.20672C356.689 8.18755 360.157 12.4214 362.202 17.373C364.248 22.3246 364.78 27.7716 363.73 33.0253C362.681 38.279 360.097 43.1035 356.306 46.8889C352.514 50.6744 347.686 53.2506 342.43 54.2921C337.175 55.3335 331.729 54.7934 326.78 52.7399C321.832 50.6865 317.604 47.2119 314.63 42.7556C311.656 38.2992 310.07 33.0611 310.073 27.7036C310.073 24.1442 310.775 20.6197 312.138 17.3318C313.501 14.0439 315.5 11.0571 318.018 8.54216C320.537 6.02726 323.527 4.03365 326.817 2.67538C330.107 1.31711 333.633 0.620829 337.192 0.626376Z" fill="#F25C19"/>
<path d="M326.854 37.9995H347.446V17.4067H326.854V37.9995Z" fill="#C4161D"/>
<path d="M301.844 54.1752H248.97V1.30078C254.251 1.29993 259.446 2.63732 264.071 5.18809C268.695 7.73886 272.597 11.4198 275.414 15.8873C278.23 11.4198 282.133 7.73886 286.757 5.18809C291.382 2.63732 296.577 1.29993 301.858 1.30078C301.858 18.9303 301.858 36.5551 301.858 54.1752" fill="#1D3C85"/>
<path d="M275.4 15.8876L289.972 30.46L275.4 45.0184L260.827 30.3897L275.4 15.8876Z" fill="#00ADEF"/>
<path d="M437.244 1.30078V54.1752C451.267 54.1752 464.716 48.6045 474.632 38.6886C484.548 28.7727 490.119 15.3239 490.119 1.30078H437.244Z" fill="#F25C19"/>
<path d="M469.624 33.6528V1.30078C461.044 1.30078 452.815 4.70928 446.748 10.7765C440.68 16.8436 437.272 25.0725 437.272 33.6528H469.624Z" fill="#C4161D"/>
<path d="M182.958 54.112H235.846V1.23767H182.958V54.112Z" fill="#F25C19"/>
<path d="M209.402 14.1505C212.081 14.1505 214.701 14.9453 216.929 16.4344C219.156 17.9234 220.893 20.0398 221.917 22.5157C222.942 24.9917 223.21 27.716 222.686 30.344C222.162 32.9719 220.871 35.3855 218.975 37.2794C217.079 39.1732 214.664 40.4622 212.036 40.9832C209.407 41.5043 206.683 41.2341 204.208 40.2067C201.733 39.1793 199.619 37.4409 198.132 35.2115C196.645 32.9821 195.853 30.3618 195.856 27.6821C195.854 25.9034 196.203 24.1418 196.884 22.4984C197.564 20.8549 198.562 19.3618 199.82 18.1047C201.078 16.8477 202.573 15.8513 204.217 15.1728C205.861 14.4942 207.623 14.1468 209.402 14.1505Z" fill="#C4161D"/>
<path d="M149.1 0C143.333 12.5751 105.355 25.3189 130.083 54.1122H167.977C192.705 25.3611 154.853 13.0393 149.1 0Z" fill="#1D3C85"/>
<path d="M149.1 27.6542C146.287 33.787 128.564 40.0464 140.14 54.1125H157.835C169.412 40.0464 151.745 34.0261 149.03 27.6542" fill="#00ADEF"/>
<path d="M73.7624 0.675171C76.4415 0.675171 79.0604 1.46961 81.288 2.95802C83.5155 4.44643 85.2517 6.56197 86.277 9.03711C87.3022 11.5123 87.5704 14.2358 87.0478 16.8634C86.5251 19.491 85.235 21.9046 83.3406 23.799C81.4462 25.6934 79.0326 26.9835 76.405 27.5062C73.7774 28.0288 71.0539 27.7606 68.5787 26.7353C66.1036 25.7101 63.9881 23.9739 62.4996 21.7463C61.0112 19.5188 60.2168 16.8999 60.2168 14.2208C60.2168 10.6283 61.6439 7.18289 64.1842 4.64259C66.7245 2.1023 70.1699 0.675171 73.7624 0.675171Z" fill="#F25C19"/>
<path d="M73.7625 27.7664C76.4427 27.7664 79.0627 28.5616 81.2909 30.0512C83.5191 31.5409 85.2552 33.6581 86.2796 36.1349C87.3041 38.6116 87.5707 41.3366 87.0457 43.965C86.5208 46.5934 85.2279 49.0069 83.3307 50.9002C81.4335 52.7934 79.0172 54.0813 76.3878 54.6008C73.7583 55.1203 71.0339 54.848 68.5592 53.8185C66.0846 52.7889 63.971 51.0484 62.486 48.8171C61.001 46.5858 60.2113 43.9642 60.2168 41.2839C60.2168 39.5057 60.5673 37.745 61.2482 36.1023C61.9291 34.4597 62.9271 32.9674 64.1851 31.7107C65.4431 30.4539 66.9365 29.4575 68.5798 28.7783C70.2232 28.0991 71.9843 27.7505 73.7625 27.7523" fill="#C4161D"/>
<path d="M100.84 0.675178C103.519 0.672396 106.14 1.46447 108.369 2.95119C110.598 4.43791 112.337 6.55247 113.364 9.02737C114.392 11.5023 114.662 14.2263 114.141 16.8548C113.62 19.4833 112.331 21.8982 110.437 23.794C108.543 25.6898 106.13 26.9813 103.502 27.5051C100.874 28.0289 98.1493 27.7615 95.6733 26.7367C93.1973 25.7119 91.081 23.9757 89.5919 21.7478C88.1029 19.5199 87.3081 16.9005 87.3081 14.2208C87.3081 10.6307 88.7333 7.18747 91.2706 4.64757C93.8078 2.10768 97.2496 0.678906 100.84 0.675178Z" fill="#C4161D"/>
<path d="M100.84 27.7664C103.521 27.7636 106.142 28.5564 108.372 30.0444C110.602 31.5323 112.34 33.6486 113.367 36.1251C114.393 38.6016 114.662 41.3271 114.139 43.9564C113.615 46.5857 112.324 49.0005 110.427 50.8952C108.53 52.7899 106.114 54.0791 103.484 54.5998C100.854 55.1204 98.1293 54.8489 95.6538 53.8198C93.1783 52.7907 91.0639 51.0501 89.5783 48.8185C88.0926 46.587 87.3026 43.9647 87.3081 41.2839C87.3081 37.6951 88.7338 34.2533 91.2714 31.7156C93.8091 29.178 97.2509 27.7523 100.84 27.7523" fill="#F25C19"/>
<path d="M55.3219 27.682C44.3448 20.3976 34.9412 10.9845 27.668 0C20.3924 10.9873 10.9836 20.4009 0 27.682C10.9769 34.9656 20.3844 44.3731 27.668 55.35C34.9504 44.3769 44.3525 34.97 55.3219 27.682Z" fill="#1D3C85"/>
<path d="M47.2198 47.2484C44.6169 34.339 44.6169 21.04 47.2198 8.13062C34.3105 10.7336 21.0114 10.7336 8.10205 8.13062C10.705 21.04 10.705 34.339 8.10205 47.2484C21.0101 44.6321 34.3118 44.6321 47.2198 47.2484Z" fill="#00ADEF"/>
</svg>
