<svg width="904" height="102" viewBox="0 0 904 102" fill="none" xmlns="http://www.w3.org/2000/svg">
<path d="M781.24 49.9113V0.0129615C774.59 -0.1386 767.976 1.04033 761.788 3.4805C755.6 5.92067 749.962 9.57288 745.205 14.2226C740.448 18.8723 736.669 24.4257 734.088 30.5566C731.508 36.6876 730.178 43.2724 730.178 49.9243C730.178 56.5761 731.508 63.161 734.088 69.2919C736.669 75.4228 740.448 80.9763 745.205 85.626C749.962 90.2757 755.6 93.9278 761.788 96.368C767.976 98.8082 774.59 99.9871 781.24 99.8356V49.9113Z" fill="#00ADEF"/>
<path d="M731.315 99.8362H781.239C781.391 93.1861 780.212 86.5727 777.772 80.3845C775.332 74.1964 771.679 68.5582 767.03 63.8014C762.38 59.0445 756.827 55.2648 750.696 52.6843C744.565 50.1037 737.98 48.7744 731.328 48.7744C724.676 48.7744 718.091 50.1037 711.96 52.6843C705.829 55.2648 700.276 59.0445 695.626 63.8014C690.977 68.5582 687.324 74.1964 684.884 80.3845C682.444 86.5727 681.265 93.1861 681.417 99.8362H731.315Z" fill="#1D3C85"/>
<path d="M621.384 1.1543C631.257 1.16455 640.905 4.10192 649.109 9.59505C657.313 15.0882 663.703 22.8904 667.473 32.0153C671.243 41.1401 672.223 51.1779 670.289 60.8596C668.354 70.5412 663.593 79.432 656.606 86.4078C649.62 93.3836 640.721 98.1313 631.037 100.05C621.352 101.97 611.316 100.974 602.197 97.1901C593.078 93.406 585.286 87.003 579.805 78.7907C574.325 70.5785 571.403 60.9256 571.408 51.0526C571.408 44.4933 572.701 37.9984 575.213 31.9394C577.726 25.8804 581.408 20.3762 586.05 15.7417C590.692 11.1072 596.202 7.43329 602.265 4.93024C608.328 2.42719 614.825 1.14407 621.384 1.1543Z" fill="#F25C19"/>
<path d="M602.332 70.0261H640.28V32.0775H602.332V70.0261Z" fill="#C4161D"/>
<path d="M556.244 99.835H458.806V2.3971C468.538 2.39553 478.112 4.8601 486.634 9.5607C495.156 14.2613 502.348 21.0446 507.538 29.2774C512.728 21.0446 519.92 14.2613 528.442 9.5607C536.964 4.8601 546.538 2.39553 556.27 2.3971C556.27 34.885 556.27 67.3643 556.27 99.835" fill="#1D3C85"/>
<path d="M507.512 29.2779L534.366 56.1323L507.512 82.9608L480.657 56.0027L507.512 29.2779Z" fill="#00ADEF"/>
<path d="M805.762 2.39709V99.835C831.604 99.835 856.388 89.5692 874.661 71.2961C892.934 53.0229 903.2 28.2392 903.2 2.39709H805.762Z" fill="#F25C19"/>
<path d="M865.432 62.0159V2.39709C849.62 2.39709 834.456 8.67835 823.275 19.859C812.094 31.0397 805.813 46.204 805.813 62.0159H865.432Z" fill="#C4161D"/>
<path d="M337.157 99.7187H434.621V2.28079H337.157V99.7187Z" fill="#F25C19"/>
<path d="M385.889 26.0769C390.827 26.0769 395.654 27.5415 399.76 30.2856C403.866 33.0296 407.065 36.9297 408.954 41.4924C410.842 46.0551 411.335 51.0755 410.37 55.9184C409.404 60.7613 407.024 65.2091 403.531 68.6991C400.037 72.189 395.587 74.5644 390.743 75.5247C385.899 76.4849 380.879 75.9869 376.319 74.0936C371.758 72.2003 367.861 68.9968 365.121 64.8884C362.382 60.7799 360.922 55.9512 360.927 51.0131C360.924 47.7353 361.567 44.489 362.821 41.4604C364.074 38.4317 365.913 35.6803 368.232 33.3637C370.551 31.0472 373.305 29.211 376.334 27.9606C379.364 26.7102 382.611 26.07 385.889 26.0769Z" fill="#C4161D"/>
<path d="M274.765 0C264.137 23.1736 194.15 46.6582 239.72 99.7189H309.551C355.121 46.736 285.367 24.029 274.765 0Z" fill="#1D3C85"/>
<path d="M274.765 50.9616C269.58 62.2633 236.92 73.7982 258.253 99.7194H290.862C312.195 73.7982 279.638 62.7039 274.635 50.9616" fill="#00ADEF"/>
<path d="M135.931 1.24423C140.868 1.24423 145.694 2.70824 149.799 5.45111C153.904 8.19399 157.104 12.0925 158.993 16.6538C160.882 21.215 161.377 26.2341 160.413 31.0762C159.45 35.9184 157.073 40.3662 153.582 43.8573C150.091 47.3483 145.643 49.7257 140.801 50.6889C135.959 51.652 130.94 51.1577 126.378 49.2684C121.817 47.379 117.919 44.1796 115.176 40.0746C112.433 35.9696 110.969 31.1434 110.969 26.2064C110.969 19.586 113.599 13.2368 118.28 8.55547C122.961 3.87416 129.311 1.24423 135.931 1.24423Z" fill="#F25C19"/>
<path d="M135.931 51.1684C140.87 51.1684 145.698 52.6338 149.805 55.3789C153.911 58.1241 157.11 62.0257 158.998 66.59C160.886 71.1542 161.377 76.1759 160.41 81.0195C159.442 85.8631 157.06 90.3109 153.563 93.7998C150.067 97.2887 145.615 99.6621 140.769 100.619C135.923 101.577 130.903 101.075 126.342 99.1777C121.782 97.2804 117.887 94.0728 115.15 89.961C112.414 85.8492 110.959 81.018 110.969 76.0787C110.969 72.8019 111.615 69.5571 112.869 66.5301C114.124 63.503 115.963 60.7529 118.282 58.437C120.6 56.1211 123.352 54.2849 126.38 53.0332C129.409 51.7816 132.654 51.1391 135.931 51.1425" fill="#C4161D"/>
<path d="M185.829 1.24425C190.767 1.23912 195.596 2.69876 199.705 5.43852C203.813 8.17827 207.016 12.075 208.91 16.6358C210.803 21.1966 211.301 26.2165 210.341 31.0603C209.381 35.9042 207.005 40.3545 203.515 43.8481C200.025 47.3417 195.577 49.7217 190.735 50.687C185.892 51.6522 180.871 51.1594 176.309 49.2709C171.746 47.3823 167.846 44.1829 165.102 40.0773C162.358 35.9717 160.893 31.1445 160.893 26.2064C160.893 19.5905 163.519 13.2452 168.195 8.56464C172.871 3.88408 179.213 1.25112 185.829 1.24425Z" fill="#C4161D"/>
<path d="M185.829 51.1684C190.77 51.1633 195.6 52.6242 199.71 55.3663C203.82 58.1084 207.023 62.0082 208.915 66.572C210.807 71.1358 211.302 76.1583 210.337 81.0036C209.373 85.8489 206.992 90.2991 203.497 93.7906C200.002 97.2821 195.549 99.658 190.703 100.617C185.857 101.577 180.835 101.077 176.273 99.1801C171.711 97.2836 167.814 94.0761 165.077 89.9637C162.339 85.8513 160.883 81.019 160.893 76.0787C160.893 69.4652 163.52 63.1226 168.197 58.4461C172.873 53.7697 179.216 51.1425 185.829 51.1425" fill="#F25C19"/>
<path d="M101.948 51.013C81.7195 37.5891 64.3903 20.2424 50.987 0C37.5795 20.2476 20.2408 37.5951 0 51.013C20.2284 64.4352 37.5648 81.7716 50.987 102C64.4072 81.7786 81.7336 64.4434 101.948 51.013Z" fill="#1D3C85"/>
<path d="M87.0176 87.0702C82.2208 63.2806 82.2208 38.7728 87.0176 14.9832C63.228 19.78 38.7202 19.78 14.9307 14.9832C19.7274 38.7728 19.7274 63.2806 14.9307 87.0702C38.7178 82.2489 63.2304 82.2489 87.0176 87.0702Z" fill="#00ADEF"/>
</svg>
