<svg width="117" height="26" viewBox="0 0 117 26" fill="none" xmlns="http://www.w3.org/2000/svg">
<g clip-path="url(#clip0_110_3250)">
<path fill-rule="evenodd" clip-rule="evenodd" d="M95.2602 7.79684C95.7072 8.5593 95.8534 9.4282 95.9014 10.4035L95.9646 11.7052V20.8015L96.0301 22.1031C96.16 24.2296 97.7453 25.8055 99.9133 25.9362L101.223 25.9998V11.7052L101.288 10.4035C101.342 9.43861 101.487 8.55236 101.941 7.78527C102.404 6.99721 103.068 6.34342 103.867 5.88953C104.666 5.43565 105.572 5.19764 106.494 5.19939C107.415 5.20115 108.32 5.44262 109.118 5.89955C109.915 6.35648 110.577 7.0128 111.037 7.80262C111.485 8.56508 111.622 9.45018 111.678 10.4035L111.742 11.7005V20.8015L111.808 22.1031C111.942 24.2412 113.516 25.8136 115.69 25.9362L117 25.9998V10.4035C117.001 8.29099 116.351 6.22835 115.136 4.49025C113.922 2.75214 112.201 1.42103 110.203 0.674129C108.204 -0.0727741 106.023 -0.200032 103.95 0.309298C101.877 0.818627 100.01 1.94038 98.5971 3.52521C96.9079 1.62875 94.5776 0.406215 92.0425 0.0865417C89.5074 -0.233132 86.9414 0.371979 84.825 1.78856C83.7966 0.658177 81.5045 -0.000153447 80.1895 -0.000153447V25.9998L81.5045 25.9362C83.7053 25.7927 85.2953 24.262 85.3808 22.1031L85.4509 20.8015V11.7052L85.5165 10.4035C85.5715 9.42242 85.7095 8.5593 86.1576 7.79105C86.6208 7.00342 87.285 6.34978 88.0836 5.89546C88.8823 5.44113 89.7875 5.20202 90.7089 5.20202C91.6303 5.20202 92.5356 5.44113 93.3342 5.89546C94.1329 6.34978 94.797 7.00342 95.2602 7.79105V7.79684ZM5.25798 25.9374L6.57306 25.9998H26.2911L26.2267 24.704C26.0489 22.5659 24.5174 21.0016 22.3493 20.8651L21.0331 20.8015H9.20439L24.976 5.19938L24.9105 3.90355C24.804 1.7446 23.2128 0.183809 21.0331 0.0657953L19.718 0.00678852L0 -0.000153447L0.06435 1.30262C0.234 3.41877 1.7901 5.01311 3.94056 5.13575L5.25798 5.20633H17.082L1.31508 20.8026L1.3806 22.0985C1.51047 24.2412 3.07359 25.7939 5.25798 25.9316V25.9374ZM75.0286 3.80636C76.2493 5.01342 77.2176 6.44643 77.8782 8.02355C78.5388 9.60068 78.8788 11.291 78.8788 12.9981C78.8788 14.7052 78.5388 16.3955 77.8782 17.9727C77.2176 19.5498 76.2493 20.9828 75.0286 22.1899C73.1901 24.0085 70.8475 25.2472 68.297 25.7492C65.7466 26.2511 63.1029 25.9939 60.7003 25.01C58.2977 24.0261 56.2441 22.3597 54.7993 20.2216C53.3545 18.0835 52.5833 15.5697 52.5833 12.9981C52.5833 10.4265 53.3545 7.91275 54.7993 5.77463C56.2441 3.63651 58.2977 1.97012 60.7003 0.986214C63.1029 0.00230843 65.7466 -0.254917 68.297 0.247069C70.8475 0.749056 73.1901 1.98771 75.0286 3.80636ZM71.308 7.48792C72.4111 8.57886 73.1623 9.96877 73.4666 11.4819C73.7709 12.995 73.6147 14.5634 73.0176 15.9887C72.4206 17.414 71.4095 18.6323 70.1124 19.4894C68.8152 20.3465 67.2901 20.8039 65.73 20.8039C64.1699 20.8039 62.6448 20.3465 61.3477 19.4894C60.0505 18.6323 59.0394 17.414 58.4424 15.9887C57.8453 14.5634 57.6891 12.995 57.9934 11.4819C58.2977 9.96877 59.0489 8.57886 60.152 7.48792C61.6317 6.02549 63.638 5.20396 65.73 5.20396C67.822 5.20396 69.8284 6.02549 71.308 7.48792ZM38.1315 -0.000153447C41.6195 0.0019941 44.9639 1.37399 47.4291 3.81412C49.8944 6.25426 51.2787 9.56273 51.2776 13.012C51.2765 16.4613 49.8901 19.7689 47.4233 22.2075C44.9565 24.6461 41.6113 26.016 38.1233 26.016C34.6353 26.016 31.29 24.6461 28.8232 22.2075C26.3564 19.7689 24.9701 16.4613 24.969 13.012C24.9679 9.56273 26.3522 6.25426 28.8174 3.81412C31.2827 1.37399 34.6271 0.0019941 38.1151 -0.000153447H38.1315ZM43.7018 7.48561C44.8054 8.57661 45.5569 9.96673 45.8615 11.4801C46.166 12.9936 46.0099 14.5623 45.4128 15.9879C44.8157 17.4136 43.8045 18.6322 42.5071 19.4895C41.2097 20.3468 39.6843 20.8044 38.1239 20.8044C36.5634 20.8044 35.038 20.3468 33.7406 19.4895C32.4432 18.6322 31.432 17.4136 30.8349 15.9879C30.2379 14.5623 30.0817 12.9936 30.3863 11.4801C30.6908 9.96673 31.4424 8.57661 32.5459 7.48561C34.0257 6.02345 36.032 5.20213 38.1239 5.20213C40.2158 5.20213 42.222 6.02345 43.7018 7.48561Z" fill="#00ADEF"/>
</g>
<defs>
<clipPath id="clip0_110_3250">
<rect width="117" height="26" fill="white"/>
</clipPath>
</defs>
</svg>
